<svg width="122" height="64" viewBox="0 0 122 64" fill="none" xmlns="http://www.w3.org/2000/svg">
<g clip-path="url(#clip0_4001_5999)">
<path d="M11.0529 20.9697C12.4777 21.0037 13.8953 20.761 15.2227 20.2558C16.5502 19.7507 17.7611 18.9932 18.7846 18.0276L16.1629 15.4297C14.7854 16.7104 12.9576 17.4306 11.0529 17.4431C6.04959 17.4626 4.04827 14.0398 4.04827 10.7535C4.04827 7.46711 6.13631 3.88199 11.0529 3.88199C12.8749 3.85181 14.6368 4.51607 15.9628 5.73301L18.5178 3.32994C17.5424 2.36753 16.3801 1.60371 15.0984 1.08298C13.8168 0.562257 12.4416 0.295034 11.0529 0.296885C3.71471 0.296885 0.239093 5.56415 0.265777 10.7405C0.292462 15.9168 3.49457 20.9568 11.0529 20.9568" fill="white"/>
<path d="M24.9429 10.5232V4.18432H30.7868C33.1951 4.18432 34.2758 5.76905 34.2758 7.35378C34.2758 8.9385 33.2284 10.5232 30.7868 10.5232H24.9429ZM39.1256 20.5122V20.2589L32.9682 13.5238C36.8308 12.7574 38.1116 10.0166 38.1116 7.29532C38.1116 3.87258 35.5833 0.76158 30.7735 0.735601C27.5447 0.735601 24.3225 0.703125 21.0938 0.703125V20.5382H24.9296V13.894H28.6187L34.5493 20.5122H39.1256Z" fill="white"/>
<path d="M50.4044 3.70673C55.1942 3.70673 57.1155 7.44771 57.0755 10.786C57.0354 14.1243 55.2142 17.5471 50.4044 17.5471C45.5946 17.5471 43.8067 14.0659 43.7333 10.812C43.6599 7.55813 45.6279 3.70673 50.4044 3.70673ZM50.4044 20.9698C57.5491 20.9698 60.7779 15.8455 60.8379 10.7276C60.898 5.60969 57.409 0.335938 50.4044 0.335938C43.3998 0.335938 39.9375 5.57072 39.9375 10.773C39.9375 15.9753 43.273 20.9893 50.4044 20.9893" fill="white"/>
<path d="M74.0033 20.9684C75.4282 21.0023 76.8457 20.7597 78.1732 20.2545C79.5007 19.7494 80.7115 18.9919 81.7351 18.0263L79.12 15.4284C77.7409 16.7106 75.9103 17.431 74.0033 17.4418C68.9734 17.4418 67.0254 14.019 66.9987 10.7327C66.972 7.44631 69.0934 3.86119 74.0033 3.86119C75.8273 3.83382 77.5898 4.50293 78.9132 5.7252L81.4749 3.32212C80.4978 2.3601 79.3342 1.5966 78.0516 1.07593C76.769 0.555261 75.393 0.287797 74.0033 0.289067C66.6652 0.289067 63.1895 5.55633 63.2229 10.7327C63.2562 15.909 66.445 20.9489 74.0033 20.9489" fill="white"/>
<path d="M92.7737 20.9435C97.8904 20.9435 101.579 17.9429 101.579 12.0846V0.738281H97.777V12.0846C97.777 15.4814 95.9758 17.5468 92.807 17.5468C89.6383 17.5468 87.5436 15.6503 87.5436 12.0846V0.738281H83.7344V12.0846C83.7344 18.0533 87.8904 20.9435 92.7737 20.9435Z" fill="white"/>
<path d="M113.236 17.6905C110.767 17.6905 108.412 16.7293 107.512 14.5471L104.316 16.1578C105.831 19.7819 109.026 21.0288 113.182 21.0288C117.712 21.0288 121.728 19.1324 121.728 14.7159C121.728 9.99423 117.772 8.9161 113.529 8.40301C111.088 8.12373 108.993 7.64312 108.993 5.91551C108.993 4.44769 110.36 3.28513 113.209 3.28513C115.417 3.28513 117.338 4.36326 118.032 5.49335L121.087 3.96708C119.546 0.908042 116.264 0.03125 113.082 0.03125C109.333 0.03125 105.204 1.72638 105.204 5.8051C105.204 10.2475 109.04 11.3192 113.209 11.7998C115.911 12.0855 117.919 12.8519 117.919 14.7159C117.919 16.8657 115.651 17.6905 113.249 17.6905" fill="white"/>
<path d="M0.273438 45.6817H4.09595V38.3751H14.256V34.9393H4.09595V29.5552H14.8364V25.9766H0.273438V45.6817Z" fill="white"/>
<path d="M25.3887 25.9453H18.4375V29.3291H21.5929V42.52H18.5509V45.6829H28.1973V42.52H25.3887V25.9453Z" fill="#E31F26"/>
<path d="M29.6875 29.3291H36.1117V45.6829H39.9342V29.3291H46.3651V25.9453H29.6875V29.3291Z" fill="white"/>
<path d="M65.9096 25.918H62.0938V34.3936L65.9096 39.1024V25.918Z" fill="white"/>
<path d="M49.0586 25.9453V45.6829H52.8811V32.3751L63.5348 45.7089V45.6829H65.9097V42.8967L52.154 25.9453H49.0586Z" fill="white"/>
<path d="M94.32 33.6128C91.8917 33.3335 89.8037 32.8529 89.8037 31.1318C89.8037 29.664 91.1379 28.5339 94.0065 28.5339C96.2079 28.5339 98.1158 29.6055 98.8096 30.7356L101.852 29.2094C100.317 26.1698 97.0485 25.3125 93.8931 25.3125C90.1573 25.3125 86.0412 27.0076 86.0412 31.0669C86.0412 35.4898 89.8637 36.5615 94.0065 37.0421C96.6749 37.3213 98.6762 38.0877 98.6762 39.9452C98.6762 42.0885 96.4214 42.9068 94.0065 42.9068C91.5915 42.9068 89.2033 41.9456 88.3027 39.7764L85.1406 41.3741V41.4195C86.6483 44.9982 89.8104 46.2322 93.9531 46.2322C98.4694 46.2322 102.465 44.3422 102.465 39.9452C102.465 35.2365 98.5228 34.1649 94.2933 33.6583" fill="white"/>
<path d="M113.56 33.6128C111.125 33.3335 109.037 32.8529 109.037 31.1318C109.037 29.664 110.372 28.5339 113.24 28.5339C115.442 28.5339 117.35 29.6055 118.043 30.7356L121.085 29.2094C119.551 26.1698 116.282 25.3125 113.12 25.3125C109.384 25.3125 105.275 27.0076 105.275 31.0669C105.275 35.4898 109.097 36.5615 113.24 37.0421C115.909 37.3213 117.91 38.0877 117.91 39.9452C117.91 42.0885 115.648 42.9068 113.24 42.9068C110.832 42.9068 108.437 41.9456 107.536 39.7764L104.348 41.3806C105.855 44.9917 109.017 46.2322 113.187 46.2322C117.703 46.2322 121.699 44.3422 121.699 39.9452C121.699 35.2365 117.756 34.1649 113.534 33.6583" fill="white"/>
<path d="M82.3483 29.5564V25.9453H69.4531V43.4617V45.6829H71.2543H82.3483V42.0134H73.2423V37.5645H82.3483V34.0963H73.2423V29.5564H82.3483Z" fill="white"/>
<path d="M35.9481 55.0905C35.8532 54.8545 35.6855 54.6528 35.4681 54.5132C35.2507 54.3737 34.9943 54.3031 34.734 54.3112C34.5934 54.2929 34.4504 54.3036 34.3143 54.3425C34.1782 54.3814 34.052 54.4477 33.9439 54.5371C33.8358 54.6265 33.7481 54.7369 33.6865 54.8613C33.625 54.9858 33.5909 55.1214 33.5866 55.2594C33.5866 55.4997 33.6733 55.9089 34.4671 56.2206L35.281 56.5454C36.782 57.1364 37.2023 57.9742 37.2023 58.877C37.2166 59.2159 37.1582 59.5539 37.031 59.8696C36.9037 60.1853 36.7102 60.4718 36.4629 60.7107C36.2157 60.9496 35.92 61.1357 35.5948 61.2572C35.2695 61.3787 34.9218 61.433 34.5739 61.4164C34.214 61.434 33.8547 61.3718 33.523 61.2346C33.1914 61.0973 32.8961 60.8886 32.6593 60.6241C32.2676 60.1948 32.033 59.6512 31.9922 59.0783L33.2263 58.812C33.2263 59.1764 33.3455 59.5313 33.5666 59.8252C33.6932 59.9809 33.856 60.1051 34.0416 60.1875C34.2271 60.27 34.4302 60.3083 34.6339 60.2993C34.9878 60.2993 35.3271 60.1625 35.5774 59.9189C35.8276 59.6753 35.9681 59.3449 35.9681 59.0004C35.9681 58.195 35.301 57.8638 34.794 57.6495L34.0135 57.3247C33.5572 57.1991 33.1522 56.9384 32.8546 56.5789C32.557 56.2194 32.3815 55.7787 32.3524 55.3178C32.3577 55.0251 32.4248 54.7365 32.5494 54.4701C32.674 54.2036 32.8535 53.9649 33.0769 53.7688C33.3002 53.5727 33.5625 53.4234 33.8476 53.3301C34.1326 53.2368 34.4344 53.2016 34.734 53.2265C35.3279 53.1998 35.9107 53.3897 36.3684 53.7591C36.626 53.9857 36.8386 54.2565 36.9955 54.558L35.9481 55.0905Z" fill="white"/>
<path d="M39.6391 58.7938C39.6167 58.9922 39.6373 59.1929 39.6998 59.383C39.7622 59.5731 39.865 59.7482 40.0016 59.8971C40.1381 60.046 40.3053 60.1652 40.4923 60.247C40.6792 60.3288 40.8818 60.3714 41.0867 60.3721C41.486 60.3224 41.8529 60.1327 42.1188 59.8386C42.3848 59.5445 42.5315 59.1662 42.5315 58.7743C42.5315 58.3825 42.3848 58.0041 42.1188 57.71C41.8529 57.4159 41.486 57.2263 41.0867 57.1766C40.8786 57.1787 40.6733 57.2236 40.4843 57.3084C40.2953 57.3933 40.1268 57.5161 39.9901 57.6689C39.8533 57.8216 39.7514 58.0009 39.6909 58.1948C39.6304 58.3887 39.6127 58.5928 39.6391 58.7938ZM39.7125 63.9896H38.5117V56.2609H39.7125V56.8064C39.9012 56.5957 40.1354 56.4282 40.3983 56.316C40.6613 56.2037 40.9465 56.1494 41.2335 56.1569C41.5765 56.1572 41.9159 56.2258 42.2307 56.3585C42.5455 56.4911 42.8291 56.6851 43.064 56.9284C43.299 57.1718 43.4803 57.4593 43.5969 57.7734C43.7134 58.0875 43.7628 58.4215 43.7418 58.7549C43.7625 59.0913 43.714 59.4283 43.5992 59.7462C43.4844 60.0642 43.3056 60.3566 43.0733 60.6064C42.8409 60.8562 42.5597 61.0584 42.2461 61.201C41.9324 61.3437 41.5927 61.424 41.2469 61.4372C40.9513 61.4328 40.6604 61.3647 40.3951 61.2378C40.1298 61.1109 39.8967 60.9283 39.7125 60.7033V63.9896Z" fill="white"/>
<path d="M48.9907 58.7787C48.9712 58.4879 48.8647 58.209 48.6844 57.9763C48.5041 57.7437 48.2578 57.5675 47.9759 57.4694C47.694 57.3714 47.3888 57.3557 47.0979 57.4244C46.807 57.4931 46.5431 57.6432 46.3387 57.8561C46.1343 58.069 45.9983 58.3355 45.9475 58.6227C45.8967 58.9099 45.9334 59.2053 46.0529 59.4725C46.1724 59.7397 46.3696 59.967 46.6201 60.1265C46.8707 60.2859 47.1637 60.3706 47.463 60.3699C47.6747 60.3765 47.8854 60.339 48.081 60.2599C48.2766 60.1808 48.4526 60.0619 48.5972 59.9113C48.7418 59.7607 48.8517 59.5817 48.9196 59.3864C48.9875 59.1911 49.0117 58.9839 48.9907 58.7787ZM50.2115 58.7787C50.2194 59.3095 50.065 59.8306 49.7679 60.2758C49.4707 60.7209 49.0443 61.0699 48.5429 61.2785C48.0414 61.487 47.4875 61.5456 46.9518 61.4468C46.416 61.3479 45.9226 61.0962 45.5342 60.7236C45.1458 60.351 44.88 59.8743 44.7707 59.3542C44.6613 58.8341 44.7134 58.2941 44.9202 57.8029C45.127 57.3116 45.4792 56.8914 45.932 56.5956C46.3848 56.2998 46.9177 56.1419 47.463 56.1418C47.8235 56.1312 48.1825 56.1919 48.5182 56.3202C48.8539 56.4485 49.1595 56.6417 49.4164 56.8881C49.6733 57.1346 49.8762 57.4292 50.0128 57.7541C50.1495 58.0791 50.2171 58.4276 50.2115 58.7787Z" fill="white"/>
<path d="M51.4609 56.2627H52.6551V56.7173C52.7963 56.5357 52.9788 56.3884 53.1883 56.287C53.3978 56.1856 53.6285 56.1328 53.8625 56.1328C54.2074 56.1419 54.5426 56.2454 54.8298 56.4316L54.2895 57.4902C54.0993 57.3425 53.8654 57.2583 53.6224 57.2499C53.4713 57.2422 53.3209 57.2744 53.1871 57.343C53.0532 57.4116 52.9409 57.514 52.8619 57.6396C52.6983 57.9616 52.6269 58.3206 52.6551 58.6788V61.2767H51.4609V56.2627Z" fill="white"/>
<path d="M56.7491 57.3329V61.2622H55.555V57.3329H55.0547V56.2612H55.555V54.4297H56.7491V56.2612H57.6631V57.3329H56.7491Z" fill="white"/>
<path d="M64.4764 55.6875C64.6157 55.6034 64.7325 55.4884 64.8172 55.3517C64.9019 55.2151 64.952 55.0608 64.9633 54.9016C64.966 54.8017 64.9465 54.7024 64.9062 54.6105C64.8659 54.5186 64.8057 54.4362 64.7297 54.369C64.6537 54.3019 64.5638 54.2514 64.4659 54.2211C64.3681 54.1909 64.2647 54.1815 64.1628 54.1937C64.0626 54.1824 63.9611 54.1923 63.8652 54.2228C63.7693 54.2532 63.6813 54.3034 63.6072 54.37C63.5331 54.4366 63.4747 54.518 63.4358 54.6086C63.397 54.6993 63.3788 54.797 63.3823 54.8951C63.3915 55.1492 63.4905 55.3923 63.6625 55.5836L64.0227 56.0122L64.4764 55.6875ZM63.7692 57.532C63.44 57.7045 63.1388 57.9233 62.8753 58.1815C62.6008 58.4493 62.443 58.8099 62.435 59.1882C62.434 59.3495 62.4666 59.5095 62.5307 59.6582C62.5949 59.807 62.6894 59.9416 62.8085 60.0539C62.9275 60.1662 63.0687 60.2538 63.2235 60.3116C63.3783 60.3693 63.5435 60.3958 63.7092 60.3897C64.04 60.3823 64.3599 60.2732 64.6231 60.0779C64.8928 59.8801 65.147 59.663 65.3836 59.4285L63.7692 57.532ZM67.9053 58.3503L66.9447 59.435L68.4456 61.2665H66.9313L66.1241 60.2923C65.9212 60.5053 65.6978 60.6988 65.457 60.8703C64.9429 61.2414 64.3156 61.4335 63.6758 61.4159C63.3581 61.4407 63.0385 61.3999 62.738 61.2964C62.4374 61.1928 62.1627 61.0288 61.9317 60.8149C61.7007 60.601 61.5186 60.3421 61.3972 60.0551C61.2759 59.7681 61.2181 59.4594 61.2276 59.1492C61.2264 58.7387 61.3337 58.3349 61.5394 57.9766C61.745 57.6182 62.042 57.3175 62.4017 57.1034L63.0688 56.6617C62.5948 56.2366 62.3059 55.651 62.2616 55.025C62.2829 54.5474 62.4887 54.0953 62.8378 53.7592C63.1868 53.423 63.6534 53.2275 64.1441 53.2119C64.6349 53.1964 65.1135 53.3617 65.4844 53.675C65.8552 53.9883 66.0908 54.4264 66.1441 54.9016C66.1481 55.2766 66.0237 55.6422 65.7906 55.9408C65.4978 56.2903 65.1565 56.5985 64.7766 56.8565L66.2175 58.5647L67.1448 57.545L67.9053 58.3503Z" fill="white"/>
<path d="M75.7834 55.0931C75.7099 54.8989 75.5857 54.7265 75.4232 54.593C75.1742 54.3982 74.8618 54.2968 74.5426 54.3073C74.4018 54.288 74.2584 54.2979 74.1219 54.3364C73.9854 54.3749 73.8587 54.4412 73.7503 54.5307C73.642 54.6203 73.5543 54.7312 73.4931 54.8561C73.4319 54.981 73.3985 55.1171 73.3952 55.2555C73.3952 55.4958 73.4819 55.905 74.2691 56.2167L75.0896 56.5415C76.5906 57.1325 77.0042 57.9703 77.0042 58.8731C77.0195 59.2116 76.962 59.5496 76.8355 59.8653C76.7089 60.181 76.5161 60.4675 76.2694 60.7065C76.0226 60.9455 75.7274 61.1317 75.4024 61.2533C75.0775 61.3749 74.7301 61.4291 74.3825 61.4125C74.0226 61.4301 73.6633 61.3679 73.3316 61.2306C73 61.0934 72.7046 60.8847 72.4679 60.6202C72.0762 60.1909 71.8416 59.6473 71.8008 59.0744L73.0349 58.8081C73.0349 59.1725 73.1541 59.5274 73.3752 59.8213C73.5007 59.9765 73.6624 60.1004 73.8468 60.1828C74.0312 60.2653 74.2331 60.3039 74.4358 60.2954C74.7897 60.2954 75.1291 60.1586 75.3793 59.915C75.6295 59.6714 75.7701 59.341 75.7701 58.9965C75.7701 58.1911 75.1363 57.8599 74.596 57.6456L73.8154 57.3208C73.3591 57.1952 72.9541 56.9345 72.6565 56.575C72.3589 56.2155 72.1835 55.7748 72.1543 55.3139C72.1597 55.0212 72.2267 54.7326 72.3513 54.4662C72.4759 54.1997 72.6555 53.961 72.8788 53.7649C73.1021 53.5688 73.3644 53.4195 73.6495 53.3262C73.9346 53.2329 74.2363 53.1977 74.5359 53.2226C75.1298 53.1959 75.7126 53.3858 76.1703 53.7552C76.4276 53.9805 76.6382 54.2516 76.7907 54.5541L75.7834 55.0931Z" fill="white"/>
<path d="M79.4723 58.794C79.4508 58.9927 79.4724 59.1936 79.5357 59.3837C79.5989 59.5738 79.7024 59.7488 79.8394 59.8976C79.9765 60.0463 80.1441 60.1654 80.3313 60.2471C80.5186 60.3289 80.7214 60.3715 80.9266 60.3722C81.3258 60.3226 81.6927 60.1329 81.9587 59.8388C82.2246 59.5447 82.3713 59.1663 82.3713 58.7745C82.3713 58.3827 82.2246 58.0043 81.9587 57.7102C81.6927 57.4161 81.3258 57.2265 80.9266 57.1768C80.7182 57.179 80.5127 57.2239 80.3234 57.3087C80.1341 57.3934 79.9653 57.5162 79.828 57.6688C79.6907 57.8214 79.5881 58.0006 79.5268 58.1944C79.4655 58.3883 79.4469 58.5926 79.4723 58.794ZM79.5457 63.9898H78.3516V56.261H79.5457V56.8066C79.7351 56.595 79.9704 56.427 80.2345 56.3147C80.4987 56.2024 80.7852 56.1486 81.0734 56.1571C81.4158 56.1583 81.7544 56.2275 82.0684 56.3606C82.3825 56.4936 82.6652 56.6877 82.8995 56.931C83.1337 57.1742 83.3144 57.4615 83.4306 57.7751C83.5468 58.0888 83.5959 58.4222 83.575 58.755C83.5966 59.0911 83.549 59.428 83.4349 59.7459C83.3209 60.0638 83.1427 60.3563 82.9109 60.6062C82.6791 60.8561 82.3983 61.0584 82.085 61.2011C81.7717 61.3439 81.4323 61.4242 81.0867 61.4374C80.7905 61.4312 80.4993 61.3624 80.2332 61.2357C79.967 61.1089 79.7325 60.9273 79.5457 60.7035V63.9898Z" fill="white"/>
<path d="M85.7751 58.7832C85.7559 58.9801 85.7781 59.1787 85.8404 59.3669C85.9026 59.5551 86.0037 59.7289 86.1373 59.8779C86.2709 60.0268 86.4343 60.1476 86.6174 60.233C86.8006 60.3184 86.9998 60.3665 87.2027 60.3745C87.6019 60.3248 87.9688 60.1351 88.2348 59.8411C88.5007 59.547 88.6474 59.1686 88.6474 58.7767C88.6474 58.3849 88.5007 58.0065 88.2348 57.7124C87.9688 57.4183 87.6019 57.2287 87.2027 57.179C86.9985 57.1868 86.7982 57.2353 86.614 57.3215C86.4298 57.4077 86.2658 57.5297 86.132 57.6801C85.9982 57.8304 85.8975 58.0059 85.8361 58.1957C85.7747 58.3854 85.7539 58.5854 85.7751 58.7832ZM88.5836 56.2633H89.7777V61.2707H88.5836V60.7447C88.3904 60.9551 88.1525 61.1222 87.8865 61.2344C87.6204 61.3465 87.3324 61.401 87.0426 61.3941C86.6964 61.388 86.3551 61.3131 86.0398 61.174C85.7244 61.0349 85.4415 60.8346 85.2085 60.5852C84.9755 60.3359 84.7973 60.0428 84.6848 59.724C84.5723 59.4052 84.5279 59.0674 84.5543 58.7313C84.5334 58.3985 84.5825 58.065 84.6987 57.7514C84.8149 57.4377 84.9956 57.1505 85.2298 56.9072C85.464 56.664 85.7468 56.4699 86.0608 56.3368C86.3748 56.2038 86.7135 56.1345 87.0559 56.1334C87.3505 56.1262 87.6426 56.1873 87.9081 56.3115C88.1737 56.4357 88.4052 56.6195 88.5836 56.8478V56.2633Z" fill="white"/>
<path d="M26.3239 57.5859H0.273438V58.7615H26.3239V57.5859Z" fill="white"/>
<path d="M121.726 57.5859H95.6758V58.7615H121.726V57.5859Z" fill="white"/>
</g>
<defs>
<clipPath id="clip0_4001_5999">
<rect width="122" height="64" fill="white"/>
</clipPath>
</defs>
</svg>
