<svg width="2880" height="145" viewBox="0 0 2880 145" fill="none" xmlns="http://www.w3.org/2000/svg">
<g clip-path="url(#clip0_4003_8518)">
<path d="M32.001 144.695C31.7522 144.695 31.5494 144.535 31.5402 144.338L27.835 13.1824L23.245 118.207C23.2358 118.404 23.033 118.557 22.7934 118.557C22.7934 118.557 22.7934 118.557 22.7842 118.557C22.5445 118.557 22.3417 118.404 22.3233 118.215L18.8485 74.6783H14.9037C14.6641 74.6783 14.4705 74.5326 14.4429 74.3505C13.6594 67.6067 11.6317 66.1938 11.2077 65.968C9.72382 66.2666 8.32285 70.9932 7.78827 74.3505C7.76062 74.5326 7.56707 74.671 7.32743 74.671H0.460845C0.202772 74.671 0 74.5107 0 74.3068C0 74.1029 0.202772 73.9427 0.460845 73.9427H6.94032C7.28134 71.9326 8.61779 65.3563 11.2815 65.2325C11.3368 65.2325 11.4013 65.2325 11.4566 65.247C11.7515 65.3272 14.3691 66.2302 15.3369 73.95H19.291C19.5306 73.95 19.7334 74.1029 19.7518 74.2923L22.6551 110.713L27.4756 0.357386C27.4848 0.160751 27.6875 0.0078125 27.9364 0.0078125C28.1853 0.0078125 28.388 0.168034 28.3972 0.364669L32.0656 130.166L34.1209 74.3068C34.1301 74.1102 34.3329 73.95 34.5818 73.95H40.3792C40.3884 73.95 42.536 73.8262 43.7618 69.7187C44.112 68.5534 44.4807 65.7423 44.9508 62.1883C46.7296 48.6787 48.6836 36.5237 53.0709 36.1669C53.5501 36.1304 54.011 36.2543 54.435 36.531C58.1401 38.978 59.6978 54.971 60.7209 65.5529C61.0988 69.4419 61.4582 73.127 61.7532 73.9427C64.509 73.9354 86.0489 73.9354 86.0489 73.9354V74.6637C86.0489 74.6637 62.5366 74.671 61.4951 74.671C60.7577 74.671 60.6471 74.3797 59.7992 65.6112C58.8406 55.7867 57.2461 39.3422 53.8359 37.0918C53.6054 36.9388 53.3842 36.8733 53.1538 36.8879C49.1537 37.2229 47.0061 53.5145 45.8632 62.2684C45.3932 65.8515 45.0245 68.6772 44.6558 69.8935C43.2457 74.6273 40.499 74.6855 40.3792 74.6855H35.0334L32.4711 144.345C32.4619 144.535 32.2499 144.695 32.001 144.695Z" fill="white" fill-opacity="0.1"/>
<path d="M112.353 144.694C112.105 144.694 111.902 144.534 111.893 144.338L108.187 13.1819L103.597 118.207C103.588 118.404 103.385 118.557 103.146 118.557C103.146 118.557 103.146 118.557 103.137 118.557C102.897 118.557 102.694 118.404 102.676 118.214L99.201 74.6777H95.2561C95.0165 74.6777 94.8229 74.5321 94.7953 74.35C94.0118 67.6061 91.9841 66.1933 91.5602 65.9675C90.0762 66.2661 88.6753 70.9926 88.1407 74.35C88.113 74.5321 87.9195 74.6705 87.6798 74.6705H80.7948C80.5368 74.6705 80.334 74.5102 80.334 74.3063C80.334 74.1024 80.5368 73.9422 80.7948 73.9422H87.2743C87.6153 71.9321 88.9518 65.3558 91.6155 65.232C91.6708 65.232 91.7353 65.232 91.7906 65.2465C92.0855 65.3266 94.7123 66.2297 95.6709 73.9495H99.6249C99.8646 73.9495 100.067 74.1024 100.086 74.2917L102.989 110.713L107.81 0.349574C107.819 0.152939 107.975 0 108.27 0C108.519 0 108.722 0.160221 108.731 0.356857L112.4 130.158L114.455 74.299C114.464 74.1024 114.667 73.9422 114.916 73.9422H120.713C120.722 73.9422 122.87 73.8184 124.096 69.7109C124.446 68.5456 124.815 65.7345 125.285 62.1805C127.064 48.6709 129.018 36.5159 133.405 36.1663C133.884 36.1299 134.345 36.2537 134.769 36.5305C138.474 38.9775 140.032 54.9705 141.055 65.5524C141.433 69.4414 141.792 73.1265 142.087 73.9422C144.852 73.9422 166.383 73.9349 166.383 73.9349V74.6632C166.383 74.6632 142.871 74.6705 141.829 74.6705C141.092 74.6705 140.981 74.3791 140.133 65.6107C139.175 55.7862 137.58 39.3416 134.17 37.0912C133.939 36.9383 133.718 36.8728 133.488 36.8873C129.488 37.2078 127.34 53.4994 126.197 62.2533C125.727 65.8364 125.358 68.6694 124.99 69.8784C123.58 74.6122 120.833 74.6705 120.713 74.6705H115.367L112.805 144.33C112.805 144.534 112.602 144.694 112.353 144.694Z" fill="white" fill-opacity="0.1"/>
<path d="M198.202 144.694C197.953 144.694 197.75 144.534 197.741 144.338L194.036 13.1819L189.446 118.207C189.437 118.404 189.234 118.557 188.994 118.557C188.718 118.535 188.543 118.411 188.524 118.214L185.05 74.6777H181.105C180.865 74.6777 180.672 74.5321 180.644 74.35C179.86 67.6061 177.833 66.1933 177.409 65.9675C175.925 66.2661 174.524 70.9926 173.989 74.35C173.962 74.5321 173.768 74.6705 173.528 74.6705H166.643C166.385 74.6705 166.183 74.5102 166.183 74.3063C166.183 74.1024 166.385 73.9422 166.643 73.9422H173.123C173.464 71.9321 174.8 65.3558 177.464 65.232C177.519 65.232 177.584 65.232 177.639 65.2465C177.934 65.3266 180.552 66.2297 181.52 73.9495H185.474C185.713 73.9495 185.916 74.1024 185.934 74.2917L188.838 110.713L193.658 0.349574C193.667 0.152939 193.852 0 194.119 0C194.368 0 194.571 0.160221 194.58 0.356857L198.248 130.158L200.304 74.299C200.313 74.1024 200.516 73.9422 200.764 73.9422H206.562C206.571 73.9422 208.719 73.8184 209.944 69.7109C210.295 68.5456 210.663 65.7345 211.133 62.1805C212.912 48.6709 214.866 36.5159 219.253 36.1663C219.733 36.1299 220.194 36.2537 220.618 36.5305C224.323 38.9775 225.871 54.9705 226.903 65.5524C227.281 69.4414 227.641 73.1265 227.936 73.9422C230.701 73.9422 252.232 73.9349 252.232 73.9349V74.6632C252.232 74.6632 228.719 74.6705 227.678 74.6705C226.94 74.6705 226.83 74.3791 225.982 65.6107C225.023 55.7862 223.429 39.3416 220.028 37.0912C219.797 36.9383 219.576 36.8728 219.346 36.8873C215.346 37.2078 213.198 53.4994 212.055 62.2533C211.585 65.8364 211.216 68.6694 210.848 69.8784C209.437 74.6122 206.691 74.6705 206.571 74.6705H201.225L198.663 144.33C198.654 144.534 198.451 144.694 198.202 144.694Z" fill="white" fill-opacity="0.1"/>
<path d="M278.553 144.695C278.304 144.695 278.101 144.535 278.092 144.338L274.387 13.1824L269.797 118.207C269.787 118.404 269.585 118.557 269.345 118.557C269.345 118.557 269.345 118.557 269.336 118.557C269.096 118.557 268.893 118.404 268.875 118.215L265.4 74.6783H261.455C261.216 74.6783 261.022 74.5326 260.995 74.3505C260.211 67.6067 258.183 66.1938 257.759 65.968C256.275 66.2666 254.874 70.9932 254.34 74.3505C254.312 74.5326 254.119 74.671 253.879 74.671H246.994C246.736 74.671 246.533 74.5107 246.533 74.3068C246.533 74.1029 246.736 73.9427 246.994 73.9427H253.474C253.815 71.9326 255.151 65.3563 257.815 65.2325C257.879 65.2325 257.934 65.2325 257.99 65.247C258.285 65.3272 260.912 66.2302 261.87 73.95H265.824C266.064 73.95 266.267 74.1029 266.285 74.2923L269.188 110.713L274.018 0.357386C274.027 0.160751 274.23 0.0078125 274.479 0.0078125C274.728 0.0078125 274.93 0.168034 274.94 0.364669L278.608 130.166L280.663 74.3068C280.673 74.1102 280.875 73.95 281.124 73.95H286.922C286.931 73.95 289.078 73.8262 290.304 69.7187C290.654 68.5534 291.023 65.7423 291.493 62.1883C293.272 48.6787 295.226 36.5237 299.613 36.1741C300.083 36.1377 300.544 36.2615 300.977 36.5383C304.683 38.9853 306.24 54.9783 307.263 65.5602C307.641 69.4492 308.001 73.1416 308.296 73.95C311.033 73.9427 332.591 73.9427 332.591 73.9427V74.671C332.591 74.671 309.079 74.6783 308.037 74.6783C307.3 74.6783 307.19 74.3869 306.342 65.6112C305.383 55.7867 303.789 39.3422 300.378 37.0918C300.148 36.9388 299.927 36.866 299.696 36.8879C295.696 37.2083 293.549 53.4999 292.396 62.2538C291.926 65.8369 291.558 68.67 291.189 69.8789C289.779 74.6127 287.032 74.671 286.912 74.671H281.567L279.004 144.331C279.004 144.535 278.802 144.695 278.553 144.695Z" fill="white" fill-opacity="0.1"/>
<path d="M359.569 144.695C359.32 144.695 359.117 144.535 359.108 144.338L355.403 13.1824L350.813 118.207C350.804 118.404 350.601 118.557 350.361 118.557C350.361 118.557 350.361 118.557 350.352 118.557C350.112 118.557 349.91 118.404 349.891 118.215L346.416 74.6783H342.472C342.232 74.6783 342.038 74.5326 342.011 74.3505C341.227 67.6067 339.2 66.1938 338.776 65.968C337.292 66.2666 335.891 70.9932 335.356 74.3505C335.328 74.5326 335.135 74.671 334.895 74.671H328.019C327.761 74.671 327.559 74.5107 327.559 74.3068C327.559 74.1029 327.761 73.9427 328.019 73.9427H334.499C334.84 71.9326 336.176 65.3563 338.84 65.2325C338.905 65.2325 338.96 65.2325 339.015 65.247C339.31 65.3272 341.928 66.2302 342.895 73.95H346.85C347.089 73.95 347.292 74.1029 347.31 74.2923L350.214 110.713L355.034 0.357386C355.043 0.160751 355.246 0.0078125 355.495 0.0078125C355.744 0.0078125 355.947 0.168034 355.956 0.364669L359.624 130.166L361.68 74.3068C361.689 74.1102 361.891 73.95 362.14 73.95H367.938C367.947 73.95 370.095 73.8262 371.32 69.7187C371.671 68.5534 372.039 65.7423 372.509 62.1883C374.288 48.6787 376.242 36.5237 380.629 36.1741C381.099 36.1377 381.56 36.2615 381.994 36.5383C385.699 38.9853 387.256 54.971 388.279 65.5602C388.657 69.4492 389.017 73.1416 389.312 73.95C392.04 73.9427 413.607 73.9427 413.607 73.9427V74.671C413.607 74.671 390.095 74.6783 389.054 74.6783C388.316 74.6783 388.206 74.3797 387.358 65.6112C386.399 55.7867 384.805 39.3422 381.404 37.0991C381.173 36.9461 380.952 36.8733 380.722 36.8951C376.721 37.2156 374.574 53.5072 373.431 62.2611C372.961 65.8442 372.592 68.6772 372.224 69.8862C370.813 74.62 368.067 74.6783 367.947 74.6783H362.601L360.039 144.338C360.02 144.535 359.818 144.695 359.569 144.695Z" fill="white" fill-opacity="0.1"/>
<path d="M439.924 144.694C439.915 144.694 439.915 144.694 439.924 144.694C439.675 144.694 439.472 144.534 439.463 144.338L435.758 13.1819L431.168 118.207C431.159 118.404 430.956 118.557 430.716 118.557C430.716 118.557 430.716 118.557 430.707 118.557C430.467 118.557 430.264 118.404 430.246 118.214L426.771 74.6777H422.826C422.587 74.6777 422.393 74.5321 422.366 74.35C421.582 67.6061 419.554 66.1933 419.13 65.9675C417.647 66.2661 416.246 70.9926 415.711 74.35C415.683 74.5321 415.49 74.6705 415.25 74.6705H408.365C408.107 74.6705 407.904 74.5102 407.904 74.3063C407.904 74.1024 408.107 73.9422 408.365 73.9422H414.845C415.186 71.9321 416.522 65.3558 419.186 65.232C419.25 65.232 419.306 65.232 419.361 65.2465C419.656 65.3266 422.283 66.2297 423.241 73.9495H427.195C427.435 73.9495 427.638 74.1024 427.656 74.2917L430.559 110.713L435.38 0.349574C435.389 0.152939 435.592 0 435.841 0C436.09 0 436.292 0.160221 436.302 0.356857L439.97 130.158L442.025 74.299C442.034 74.1024 442.237 73.9422 442.486 73.9422H448.283C448.293 73.9422 450.44 73.8184 451.666 69.7109C452.016 68.5456 452.385 65.7345 452.846 62.1805C454.625 48.6709 456.579 36.5159 460.966 36.1591C461.436 36.1226 461.897 36.2464 462.33 36.5232C466.035 38.9702 467.593 54.9632 468.616 65.5451C468.994 69.4341 469.353 73.1192 469.648 73.9349C472.404 73.9276 493.944 73.9276 493.944 73.9276V74.6559C493.944 74.6559 470.432 74.6632 469.39 74.6632C468.653 74.6632 468.542 74.3719 467.694 65.6034C466.736 55.7789 465.141 39.3344 461.731 37.084C461.501 36.931 461.279 36.8582 461.049 36.8801C457.049 37.2005 454.901 53.4994 453.749 62.2533C453.279 65.8364 452.91 68.6622 452.542 69.8711C451.132 74.6049 448.385 74.6632 448.265 74.6632H442.919L440.357 144.323C440.375 144.534 440.173 144.694 439.924 144.694Z" fill="white" fill-opacity="0.1"/>
<path d="M523.707 144.695C523.458 144.695 523.255 144.535 523.246 144.338L519.541 13.1824L514.951 118.207C514.942 118.404 514.739 118.557 514.499 118.557C514.499 118.557 514.499 118.557 514.49 118.557C514.251 118.557 514.048 118.404 514.029 118.215L510.555 74.6783H506.61C506.37 74.6783 506.177 74.5326 506.149 74.3505C505.365 67.6067 503.338 66.1938 502.914 65.968C501.43 66.2666 500.029 70.9932 499.494 74.3505C499.467 74.5326 499.273 74.671 499.033 74.671H492.167C491.909 74.671 491.706 74.5107 491.706 74.3068C491.706 74.1029 491.909 73.9427 492.167 73.9427H498.646C498.987 71.9326 500.324 65.3563 502.988 65.2325C503.043 65.2325 503.107 65.2325 503.163 65.247C503.458 65.3272 506.075 66.2302 507.043 73.95H510.997C511.237 73.95 511.439 74.1029 511.458 74.2923L514.361 110.713L519.182 0.357386C519.191 0.160751 519.394 0.0078125 519.642 0.0078125C519.891 0.0078125 520.094 0.168034 520.103 0.364669L523.772 130.166L525.827 74.3068C525.836 74.1102 526.039 73.95 526.288 73.95H532.085C532.094 73.95 534.242 73.8262 535.468 69.7187C535.818 68.5534 536.187 65.7423 536.657 62.1883C538.436 48.6787 540.39 36.5237 544.777 36.1669C545.256 36.1304 545.717 36.2543 546.141 36.531C549.846 38.978 551.404 54.971 552.427 65.5529C552.805 69.4419 553.164 73.127 553.459 73.9427C556.215 73.9354 577.755 73.9354 577.755 73.9354V74.6637C577.755 74.6637 554.243 74.671 553.201 74.671C552.464 74.671 552.353 74.3797 551.505 65.6112C550.547 55.7867 548.952 39.3422 545.542 37.0918C545.311 36.9388 545.09 36.8733 544.86 36.8879C540.86 37.2229 538.712 53.5145 537.569 62.2684C537.099 65.8515 536.731 68.6772 536.362 69.8935C534.952 74.6273 532.205 74.6855 532.085 74.6855H526.739L524.177 144.345C524.168 144.535 523.956 144.695 523.707 144.695Z" fill="white" fill-opacity="0.1"/>
<path d="M604.06 144.694C603.811 144.694 603.608 144.534 603.599 144.338L599.893 13.1819L595.303 118.207C595.294 118.404 595.091 118.557 594.852 118.557C594.852 118.557 594.852 118.557 594.843 118.557C594.603 118.557 594.4 118.404 594.382 118.214L590.907 74.6777H586.962C586.723 74.6777 586.529 74.5321 586.501 74.35C585.718 67.6061 583.69 66.1933 583.266 65.9675C581.782 66.2661 580.381 70.9926 579.847 74.35C579.819 74.5321 579.626 74.6705 579.386 74.6705H572.501C572.243 74.6705 572.04 74.5102 572.04 74.3063C572.04 74.1024 572.243 73.9422 572.501 73.9422H578.98C579.321 71.9321 580.658 65.3558 583.322 65.232C583.377 65.232 583.441 65.232 583.497 65.2465C583.792 65.3266 586.418 66.2297 587.377 73.9495H591.331C591.571 73.9495 591.773 74.1024 591.792 74.2917L594.695 110.713L599.516 0.349574C599.525 0.152939 599.681 0 599.976 0C600.225 0 600.428 0.160221 600.437 0.356857L604.106 130.158L606.161 74.299C606.17 74.1024 606.373 73.9422 606.622 73.9422H612.419C612.428 73.9422 614.576 73.8184 615.802 69.7109C616.152 68.5456 616.521 65.7345 616.991 62.1805C618.77 48.6709 620.724 36.5159 625.111 36.1663C625.59 36.1299 626.051 36.2537 626.475 36.5305C630.18 38.9775 631.738 54.9705 632.761 65.5524C633.139 69.4414 633.498 73.1265 633.793 73.9422C636.558 73.9422 658.089 73.9349 658.089 73.9349V74.6632C658.089 74.6632 634.577 74.6705 633.535 74.6705C632.798 74.6705 632.687 74.3791 631.839 65.6107C630.881 55.7862 629.286 39.3416 625.876 37.0912C625.645 36.9383 625.424 36.8728 625.194 36.8873C621.194 37.2078 619.046 53.4994 617.903 62.2533C617.433 65.8364 617.065 68.6694 616.696 69.8784C615.286 74.6122 612.539 74.6705 612.419 74.6705H607.073L604.511 144.33C604.511 144.534 604.308 144.694 604.06 144.694Z" fill="white" fill-opacity="0.1"/>
<path d="M689.908 144.694C689.659 144.694 689.457 144.534 689.447 144.338L685.742 13.1819L681.152 118.207C681.143 118.404 680.94 118.557 680.7 118.557C680.424 118.535 680.249 118.411 680.23 118.214L676.756 74.6777H672.811C672.571 74.6777 672.378 74.5321 672.35 74.35C671.567 67.6061 669.539 66.1933 669.115 65.9675C667.631 66.2661 666.23 70.9926 665.695 74.35C665.668 74.5321 665.474 74.6705 665.235 74.6705H658.35C658.091 74.6705 657.889 74.5102 657.889 74.3063C657.889 74.1024 658.091 73.9422 658.35 73.9422H664.829C665.17 71.9321 666.506 65.3558 669.17 65.232C669.225 65.232 669.29 65.232 669.345 65.2465C669.64 65.3266 672.258 66.2297 673.226 73.9495H677.18C677.419 73.9495 677.622 74.1024 677.64 74.2917L680.544 110.713L685.364 0.349574C685.373 0.152939 685.558 0 685.825 0C686.074 0 686.277 0.160221 686.286 0.356857L689.954 130.158L692.01 74.299C692.019 74.1024 692.222 73.9422 692.47 73.9422H698.268C698.277 73.9422 700.425 73.8184 701.65 69.7109C702.001 68.5456 702.369 65.7345 702.839 62.1805C704.618 48.6709 706.572 36.5159 710.96 36.1663C711.439 36.1299 711.9 36.2537 712.324 36.5305C716.029 38.9775 717.577 54.9705 718.61 65.5524C718.987 69.4414 719.347 73.1265 719.642 73.9422C722.407 73.9422 743.938 73.9349 743.938 73.9349V74.6632C743.938 74.6632 720.425 74.6705 719.384 74.6705C718.646 74.6705 718.536 74.3791 717.688 65.6107C716.729 55.7862 715.135 39.3416 711.734 37.0912C711.503 36.9383 711.282 36.8728 711.052 36.8873C707.052 37.2078 704.904 53.4994 703.761 62.2533C703.291 65.8364 702.922 68.6694 702.554 69.8784C701.144 74.6122 698.397 74.6705 698.277 74.6705H692.931L690.369 144.33C690.36 144.534 690.157 144.694 689.908 144.694Z" fill="white" fill-opacity="0.1"/>
<path d="M770.261 144.695C770.012 144.695 769.809 144.535 769.8 144.338L766.095 13.1824L761.505 118.207C761.495 118.404 761.293 118.557 761.053 118.557C761.053 118.557 761.053 118.557 761.044 118.557C760.804 118.557 760.601 118.404 760.583 118.215L757.108 74.6783H753.163C752.924 74.6783 752.73 74.5326 752.703 74.3505C751.919 67.6067 749.891 66.1938 749.467 65.968C747.983 66.2666 746.582 70.9932 746.048 74.3505C746.02 74.5326 745.827 74.671 745.587 74.671H738.702C738.444 74.671 738.241 74.5107 738.241 74.3068C738.241 74.1029 738.444 73.9427 738.702 73.9427H745.182C745.523 71.9326 746.859 65.3563 749.523 65.2325C749.587 65.2325 749.642 65.2325 749.698 65.247C749.993 65.3272 752.62 66.2302 753.578 73.95H757.532C757.772 73.95 757.975 74.1029 757.993 74.2923L760.896 110.713L765.726 0.357386C765.735 0.160751 765.938 0.0078125 766.187 0.0078125C766.436 0.0078125 766.638 0.168034 766.648 0.364669L770.316 130.166L772.371 74.3068C772.381 74.1102 772.583 73.95 772.832 73.95H778.63C778.639 73.95 780.786 73.8262 782.012 69.7187C782.362 68.5534 782.731 65.7423 783.201 62.1883C784.98 48.6787 786.934 36.5237 791.321 36.1741C791.791 36.1377 792.252 36.2615 792.685 36.5383C796.391 38.9853 797.948 54.9783 798.971 65.5602C799.349 69.4492 799.709 73.1416 800.004 73.95C802.741 73.9427 824.299 73.9427 824.299 73.9427V74.671C824.299 74.671 800.787 74.6783 799.746 74.6783C799.008 74.6783 798.898 74.3869 798.05 65.6112C797.091 55.7867 795.497 39.3422 792.086 37.0918C791.856 36.9388 791.635 36.866 791.404 36.8879C787.404 37.2083 785.257 53.4999 784.104 62.2538C783.634 65.8369 783.266 68.67 782.897 69.8789C781.487 74.6127 778.74 74.671 778.62 74.671H773.275L770.712 144.331C770.712 144.535 770.51 144.695 770.261 144.695Z" fill="white" fill-opacity="0.1"/>
<path d="M851.275 144.695C851.026 144.695 850.823 144.535 850.814 144.338L847.109 13.1824L842.519 118.207C842.51 118.404 842.307 118.557 842.067 118.557C842.067 118.557 842.067 118.557 842.058 118.557C841.818 118.557 841.616 118.404 841.597 118.215L838.122 74.6783H834.178C833.938 74.6783 833.744 74.5326 833.717 74.3505C832.933 67.6067 830.906 66.1938 830.482 65.968C828.998 66.2666 827.597 70.9932 827.062 74.3505C827.034 74.5326 826.841 74.671 826.601 74.671H819.725C819.467 74.671 819.265 74.5107 819.265 74.3068C819.265 74.1029 819.467 73.9427 819.725 73.9427H826.205C826.546 71.9326 827.882 65.3563 830.546 65.2325C830.611 65.2325 830.666 65.2325 830.721 65.247C831.016 65.3272 833.634 66.2302 834.602 73.95H838.556C838.795 73.95 838.998 74.1029 839.016 74.2923L841.92 110.713L846.74 0.357386C846.749 0.160751 846.952 0.0078125 847.201 0.0078125C847.45 0.0078125 847.653 0.168034 847.662 0.364669L851.33 130.166L853.386 74.3068C853.395 74.1102 853.598 73.95 853.846 73.95H859.644C859.653 73.95 861.801 73.8262 863.026 69.7187C863.377 68.5534 863.745 65.7423 864.215 62.1883C865.994 48.6787 867.948 36.5237 872.335 36.1741C872.806 36.1377 873.266 36.2615 873.7 36.5383C877.405 38.9853 878.962 54.971 879.985 65.5602C880.363 69.4492 880.723 73.1416 881.018 73.95C883.746 73.9427 905.314 73.9427 905.314 73.9427V74.671C905.314 74.671 881.801 74.6783 880.76 74.6783C880.022 74.6783 879.912 74.3797 879.064 65.6112C878.105 55.7867 876.511 39.3422 873.11 37.0991C872.879 36.9461 872.658 36.8733 872.428 36.8951C868.428 37.2156 866.28 53.5072 865.137 62.2611C864.667 65.8442 864.298 68.6772 863.93 69.8862C862.52 74.62 859.773 74.6783 859.653 74.6783H854.307L851.745 144.338C851.727 144.535 851.524 144.695 851.275 144.695Z" fill="white" fill-opacity="0.1"/>
<path d="M931.63 144.694C931.621 144.694 931.621 144.694 931.63 144.694C931.381 144.694 931.178 144.534 931.169 144.338L927.464 13.1819L922.874 118.207C922.865 118.404 922.662 118.557 922.422 118.557C922.422 118.557 922.422 118.557 922.413 118.557C922.173 118.557 921.971 118.404 921.952 118.214L918.477 74.6777H914.532C914.293 74.6777 914.099 74.5321 914.072 74.35C913.288 67.6061 911.26 66.1933 910.837 65.9675C909.353 66.2661 907.952 70.9926 907.417 74.35C907.389 74.5321 907.196 74.6705 906.956 74.6705H900.071C899.813 74.6705 899.61 74.5102 899.61 74.3063C899.61 74.1024 899.813 73.9422 900.071 73.9422H906.551C906.892 71.9321 908.228 65.3558 910.892 65.232C910.956 65.232 911.012 65.232 911.067 65.2465C911.362 65.3266 913.989 66.2297 914.947 73.9495H918.901C919.141 73.9495 919.344 74.1024 919.362 74.2917L922.265 110.713L927.086 0.349574C927.095 0.152939 927.298 0 927.547 0C927.796 0 927.998 0.160221 928.008 0.356857L931.676 130.158L933.731 74.299C933.74 74.1024 933.943 73.9422 934.192 73.9422H939.99C939.999 73.9422 942.146 73.8184 943.372 69.7109C943.722 68.5456 944.091 65.7345 944.552 62.1805C946.331 48.6709 948.285 36.5159 952.672 36.1591C953.142 36.1226 953.603 36.2464 954.036 36.5232C957.741 38.9702 959.299 54.9632 960.322 65.5451C960.7 69.4341 961.059 73.1192 961.354 73.9349C964.11 73.9276 985.65 73.9276 985.65 73.9276V74.6559C985.65 74.6559 962.138 74.6632 961.096 74.6632C960.359 74.6632 960.248 74.3719 959.4 65.6034C958.442 55.7789 956.847 39.3344 953.437 37.084C953.207 36.931 952.985 36.8582 952.755 36.8801C948.755 37.2005 946.607 53.4994 945.455 62.2533C944.985 65.8364 944.616 68.6622 944.248 69.8711C942.838 74.6049 940.091 74.6632 939.971 74.6632H934.625L932.063 144.323C932.081 144.534 931.879 144.694 931.63 144.694Z" fill="white" fill-opacity="0.1"/>
<path d="M1016.03 144.695C1015.78 144.695 1015.58 144.535 1015.57 144.338L1011.86 13.1824L1007.27 118.207C1007.27 118.404 1007.06 118.557 1006.82 118.557C1006.82 118.557 1006.82 118.557 1006.81 118.557C1006.57 118.557 1006.37 118.404 1006.35 118.215L1002.88 74.6783H998.933C998.693 74.6783 998.5 74.5326 998.472 74.3505C997.689 67.6067 995.661 66.1938 995.237 65.968C993.753 66.2666 992.352 70.9932 991.818 74.3505C991.79 74.5326 991.596 74.671 991.357 74.671H984.49C984.232 74.671 984.029 74.5107 984.029 74.3068C984.029 74.1029 984.232 73.9427 984.49 73.9427H990.97C991.311 71.9326 992.647 65.3563 995.311 65.2325C995.366 65.2325 995.431 65.2325 995.486 65.247C995.781 65.3272 998.398 66.2302 999.366 73.95H1003.32C1003.56 73.95 1003.76 74.1029 1003.78 74.2923L1006.68 110.713L1011.5 0.357386C1011.51 0.160751 1011.72 0.0078125 1011.97 0.0078125C1012.21 0.0078125 1012.42 0.168034 1012.43 0.364669L1016.09 130.166L1018.15 74.3068C1018.16 74.1102 1018.36 73.95 1018.61 73.95H1024.41C1024.42 73.95 1026.57 73.8262 1027.79 69.7187C1028.14 68.5534 1028.51 65.7423 1028.98 62.1883C1030.76 48.6787 1032.71 36.5237 1037.1 36.1669C1037.58 36.1304 1038.04 36.2543 1038.46 36.531C1042.17 38.978 1043.73 54.971 1044.75 65.5529C1045.13 69.4419 1045.49 73.127 1045.78 73.9427C1048.54 73.9354 1070.08 73.9354 1070.08 73.9354V74.6637C1070.08 74.6637 1046.57 74.671 1045.52 74.671C1044.79 74.671 1044.68 74.3797 1043.83 65.6112C1042.87 55.7867 1041.28 39.3422 1037.87 37.0918C1037.63 36.9388 1037.41 36.8733 1037.18 36.8879C1033.18 37.2229 1031.04 53.5145 1029.89 62.2684C1029.42 65.8515 1029.05 68.6772 1028.69 69.8935C1027.27 74.6273 1024.53 74.6855 1024.41 74.6855H1019.06L1016.5 144.345C1016.49 144.535 1016.28 144.695 1016.03 144.695Z" fill="white" fill-opacity="0.1"/>
<path d="M1096.38 144.694C1096.13 144.694 1095.93 144.534 1095.92 144.338L1092.22 13.1819L1087.63 118.207C1087.62 118.404 1087.41 118.557 1087.18 118.557C1087.18 118.557 1087.18 118.557 1087.17 118.557C1086.93 118.557 1086.72 118.404 1086.71 118.214L1083.23 74.6777H1079.29C1079.05 74.6777 1078.85 74.5321 1078.82 74.35C1078.04 67.6061 1076.01 66.1933 1075.59 65.9675C1074.11 66.2661 1072.7 70.9926 1072.17 74.35C1072.14 74.5321 1071.95 74.6705 1071.71 74.6705H1064.82C1064.57 74.6705 1064.36 74.5102 1064.36 74.3063C1064.36 74.1024 1064.57 73.9422 1064.82 73.9422H1071.3C1071.64 71.9321 1072.98 65.3558 1075.64 65.232C1075.7 65.232 1075.76 65.232 1075.82 65.2465C1076.11 65.3266 1078.74 66.2297 1079.7 73.9495H1083.65C1083.89 73.9495 1084.1 74.1024 1084.12 74.2917L1087.02 110.713L1091.84 0.349574C1091.85 0.152939 1092 0 1092.3 0C1092.55 0 1092.75 0.160221 1092.76 0.356857L1096.43 130.158L1098.48 74.299C1098.49 74.1024 1098.7 73.9422 1098.95 73.9422H1104.74C1104.75 73.9422 1106.9 73.8184 1108.13 69.7109C1108.48 68.5456 1108.84 65.7345 1109.31 62.1805C1111.09 48.6709 1113.05 36.5159 1117.43 36.1663C1117.91 36.1299 1118.37 36.2537 1118.8 36.5305C1122.5 38.9775 1124.06 54.9705 1125.08 65.5524C1125.46 69.4414 1125.82 73.1265 1126.12 73.9422C1128.88 73.9422 1150.41 73.9349 1150.41 73.9349V74.6632C1150.41 74.6632 1126.9 74.6705 1125.86 74.6705C1125.12 74.6705 1125.01 74.3791 1124.16 65.6107C1123.2 55.7862 1121.61 39.3416 1118.2 37.0912C1117.97 36.9383 1117.75 36.8728 1117.52 36.8873C1113.52 37.2078 1111.37 53.4994 1110.23 62.2533C1109.76 65.8364 1109.39 68.6694 1109.02 69.8784C1107.61 74.6122 1104.86 74.6705 1104.74 74.6705H1099.4L1096.83 144.33C1096.83 144.534 1096.63 144.694 1096.38 144.694Z" fill="white" fill-opacity="0.1"/>
<path d="M1182.23 144.694C1181.98 144.694 1181.78 144.534 1181.77 144.338L1178.07 13.1819L1173.48 118.207C1173.47 118.404 1173.26 118.557 1173.02 118.557C1172.75 118.535 1172.57 118.411 1172.55 118.214L1169.08 74.6777H1165.13C1164.89 74.6777 1164.7 74.5321 1164.67 74.35C1163.89 67.6061 1161.86 66.1933 1161.44 65.9675C1159.95 66.2661 1158.55 70.9926 1158.02 74.35C1157.99 74.5321 1157.8 74.6705 1157.56 74.6705H1150.67C1150.41 74.6705 1150.21 74.5102 1150.21 74.3063C1150.21 74.1024 1150.41 73.9422 1150.67 73.9422H1157.15C1157.49 71.9321 1158.83 65.3558 1161.49 65.232C1161.55 65.232 1161.61 65.232 1161.67 65.2465C1161.96 65.3266 1164.58 66.2297 1165.55 73.9495H1169.5C1169.74 73.9495 1169.95 74.1024 1169.96 74.2917L1172.87 110.713L1177.69 0.349574C1177.7 0.152939 1177.88 0 1178.15 0C1178.4 0 1178.6 0.160221 1178.61 0.356857L1182.28 130.158L1184.33 74.299C1184.34 74.1024 1184.54 73.9422 1184.79 73.9422H1190.59C1190.6 73.9422 1192.75 73.8184 1193.97 69.7109C1194.32 68.5456 1194.69 65.7345 1195.16 62.1805C1196.94 48.6709 1198.9 36.5159 1203.28 36.1663C1203.76 36.1299 1204.22 36.2537 1204.65 36.5305C1208.35 38.9775 1209.9 54.9705 1210.93 65.5524C1211.31 69.4414 1211.67 73.1265 1211.97 73.9422C1214.73 73.9422 1236.26 73.9349 1236.26 73.9349V74.6632C1236.26 74.6632 1212.75 74.6705 1211.71 74.6705C1210.97 74.6705 1210.86 74.3791 1210.01 65.6107C1209.05 55.7862 1207.46 39.3416 1204.06 37.0912C1203.83 36.9383 1203.61 36.8728 1203.37 36.8873C1199.37 37.2078 1197.23 53.4994 1196.08 62.2533C1195.61 65.8364 1195.25 68.6694 1194.88 69.8784C1193.47 74.6122 1190.72 74.6705 1190.6 74.6705H1185.25L1182.69 144.33C1182.68 144.534 1182.48 144.694 1182.23 144.694Z" fill="white" fill-opacity="0.1"/>
<path d="M1262.58 144.695C1262.33 144.695 1262.13 144.535 1262.12 144.338L1258.42 13.1824L1253.83 118.207C1253.82 118.404 1253.61 118.557 1253.37 118.557C1253.37 118.557 1253.37 118.557 1253.37 118.557C1253.13 118.557 1252.92 118.404 1252.9 118.215L1249.43 74.6783H1245.48C1245.25 74.6783 1245.05 74.5326 1245.02 74.3505C1244.24 67.6067 1242.21 66.1938 1241.79 65.968C1240.3 66.2666 1238.9 70.9932 1238.37 74.3505C1238.34 74.5326 1238.15 74.671 1237.91 74.671H1231.02C1230.77 74.671 1230.56 74.5107 1230.56 74.3068C1230.56 74.1029 1230.77 73.9427 1231.02 73.9427H1237.5C1237.84 71.9326 1239.18 65.3563 1241.84 65.2325C1241.91 65.2325 1241.96 65.2325 1242.02 65.247C1242.31 65.3272 1244.94 66.2302 1245.9 73.95H1249.85C1250.09 73.95 1250.3 74.1029 1250.31 74.2923L1253.22 110.713L1258.05 0.357386C1258.06 0.160751 1258.26 0.0078125 1258.51 0.0078125C1258.76 0.0078125 1258.96 0.168034 1258.97 0.364669L1262.64 130.166L1264.69 74.3068C1264.7 74.1102 1264.9 73.95 1265.15 73.95H1270.95C1270.96 73.95 1273.11 73.8262 1274.33 69.7187C1274.68 68.5534 1275.05 65.7423 1275.52 62.1883C1277.3 48.6787 1279.26 36.5237 1283.64 36.1741C1284.11 36.1377 1284.57 36.2615 1285.01 36.5383C1288.71 38.9853 1290.27 54.9783 1291.29 65.5602C1291.67 69.4492 1292.03 73.1416 1292.32 73.95C1295.06 73.9427 1316.62 73.9427 1316.62 73.9427V74.671C1316.62 74.671 1293.11 74.6783 1292.07 74.6783C1291.33 74.6783 1291.22 74.3869 1290.37 65.6112C1289.41 55.7867 1287.82 39.3422 1284.41 37.0918C1284.18 36.9388 1283.96 36.866 1283.73 36.8879C1279.73 37.2083 1277.58 53.4999 1276.43 62.2538C1275.96 65.8369 1275.59 68.67 1275.22 69.8789C1273.81 74.6127 1271.06 74.671 1270.94 74.671H1265.6L1263.03 144.331C1263.03 144.535 1262.83 144.695 1262.58 144.695Z" fill="white" fill-opacity="0.1"/>
<path d="M1343.6 144.695C1343.35 144.695 1343.15 144.535 1343.14 144.338L1339.43 13.1824L1334.84 118.207C1334.83 118.404 1334.63 118.557 1334.39 118.557C1334.39 118.557 1334.39 118.557 1334.38 118.557C1334.14 118.557 1333.94 118.404 1333.92 118.215L1330.45 74.6783H1326.5C1326.26 74.6783 1326.07 74.5326 1326.04 74.3505C1325.26 67.6067 1323.23 66.1938 1322.8 65.968C1321.32 66.2666 1319.92 70.9932 1319.39 74.3505C1319.36 74.5326 1319.16 74.671 1318.92 74.671H1312.05C1311.79 74.671 1311.59 74.5107 1311.59 74.3068C1311.59 74.1029 1311.79 73.9427 1312.05 73.9427H1318.53C1318.87 71.9326 1320.21 65.3563 1322.87 65.2325C1322.93 65.2325 1322.99 65.2325 1323.04 65.247C1323.34 65.3272 1325.96 66.2302 1326.92 73.95H1330.88C1331.12 73.95 1331.32 74.1029 1331.34 74.2923L1334.24 110.713L1339.06 0.357386C1339.07 0.160751 1339.28 0.0078125 1339.52 0.0078125C1339.77 0.0078125 1339.98 0.168034 1339.99 0.364669L1343.65 130.166L1345.71 74.3068C1345.72 74.1102 1345.92 73.95 1346.17 73.95H1351.97C1351.98 73.95 1354.12 73.8262 1355.35 69.7187C1355.7 68.5534 1356.07 65.7423 1356.54 62.1883C1358.32 48.6787 1360.27 36.5237 1364.66 36.1741C1365.13 36.1377 1365.59 36.2615 1366.02 36.5383C1369.73 38.9853 1371.29 54.971 1372.31 65.5602C1372.69 69.4492 1373.05 73.1416 1373.34 73.95C1376.07 73.9427 1397.64 73.9427 1397.64 73.9427V74.671C1397.64 74.671 1374.12 74.6783 1373.08 74.6783C1372.35 74.6783 1372.23 74.3797 1371.39 65.6112C1370.43 55.7867 1368.83 39.3422 1365.43 37.0991C1365.2 36.9461 1364.98 36.8733 1364.75 36.8951C1360.75 37.2156 1358.6 53.5072 1357.46 62.2611C1356.99 65.8442 1356.62 68.6772 1356.25 69.8862C1354.84 74.62 1352.1 74.6783 1351.98 74.6783H1346.63L1344.07 144.338C1344.05 144.535 1343.85 144.695 1343.6 144.695Z" fill="white" fill-opacity="0.1"/>
<path d="M1423.95 144.694C1423.94 144.694 1423.94 144.694 1423.95 144.694C1423.7 144.694 1423.5 144.534 1423.49 144.338L1419.79 13.1819L1415.2 118.207C1415.19 118.404 1414.99 118.557 1414.75 118.557C1414.75 118.557 1414.75 118.557 1414.74 118.557C1414.5 118.557 1414.29 118.404 1414.28 118.214L1410.8 74.6777H1406.86C1406.62 74.6777 1406.42 74.5321 1406.39 74.35C1405.61 67.6061 1403.58 66.1933 1403.16 65.9675C1401.68 66.2661 1400.27 70.9926 1399.74 74.35C1399.71 74.5321 1399.52 74.6705 1399.28 74.6705H1392.39C1392.14 74.6705 1391.93 74.5102 1391.93 74.3063C1391.93 74.1024 1392.14 73.9422 1392.39 73.9422H1398.87C1399.21 71.9321 1400.55 65.3558 1403.22 65.232C1403.28 65.232 1403.33 65.232 1403.39 65.2465C1403.69 65.3266 1406.31 66.2297 1407.27 73.9495H1411.22C1411.46 73.9495 1411.67 74.1024 1411.69 74.2917L1414.59 110.713L1419.41 0.349574C1419.42 0.152939 1419.62 0 1419.87 0C1420.12 0 1420.32 0.160221 1420.33 0.356857L1424 130.158L1426.05 74.299C1426.06 74.1024 1426.27 73.9422 1426.52 73.9422H1432.31C1432.32 73.9422 1434.47 73.8184 1435.7 69.7109C1436.05 68.5456 1436.41 65.7345 1436.88 62.1805C1438.65 48.6709 1440.61 36.5159 1445 36.1591C1445.47 36.1226 1445.93 36.2464 1446.36 36.5232C1450.06 38.9702 1451.62 54.9632 1452.65 65.5451C1453.02 69.4341 1453.38 73.1192 1453.68 73.9349C1456.43 73.9276 1477.97 73.9276 1477.97 73.9276V74.6559C1477.97 74.6559 1454.46 74.6632 1453.42 74.6632C1452.68 74.6632 1452.57 74.3719 1451.72 65.6034C1450.77 55.7789 1449.17 39.3344 1445.76 37.084C1445.53 36.931 1445.31 36.8582 1445.08 36.8801C1441.08 37.2005 1438.93 53.4994 1437.78 62.2533C1437.31 65.8364 1436.94 68.6622 1436.57 69.8711C1435.16 74.6049 1432.41 74.6632 1432.29 74.6632H1426.95L1424.39 144.323C1424.4 144.534 1424.2 144.694 1423.95 144.694Z" fill="white" fill-opacity="0.1"/>
</g>
<g clip-path="url(#clip1_4003_8518)">
<path d="M2885.97 0.000322528C2886.22 0.00032255 2886.42 0.160548 2886.43 0.357183L2890.14 131.513L2894.73 26.4878C2894.74 26.2912 2894.94 26.1383 2895.18 26.1383C2895.18 26.1383 2895.18 26.1383 2895.19 26.1383C2895.43 26.1383 2895.63 26.2912 2895.65 26.4805L2899.12 70.0171L2903.07 70.0171C2903.31 70.0171 2903.5 70.1627 2903.53 70.3448C2904.31 77.0886 2906.34 78.5015 2906.77 78.7273C2908.25 78.4287 2909.65 73.7022 2910.18 70.3448C2910.21 70.1627 2910.41 70.0243 2910.65 70.0243L2917.51 70.0243C2917.77 70.0243 2917.97 70.1846 2917.97 70.3885C2917.97 70.5924 2917.77 70.7526 2917.51 70.7526L2911.03 70.7526C2910.69 72.7627 2909.36 79.339 2906.69 79.4628C2906.64 79.4628 2906.57 79.4628 2906.52 79.4483C2906.22 79.3682 2903.6 78.4651 2902.64 70.7453L2898.68 70.7453C2898.44 70.7453 2898.24 70.5924 2898.22 70.403L2895.32 33.9818L2890.5 144.338C2890.49 144.535 2890.29 144.687 2890.04 144.687C2889.79 144.687 2889.59 144.527 2889.58 144.331L2885.91 14.5295L2883.85 70.3885C2883.84 70.5851 2883.64 70.7453 2883.39 70.7453L2877.59 70.7453C2877.58 70.7453 2875.44 70.8691 2874.21 74.9766C2873.86 76.1419 2873.49 78.953 2873.02 82.507C2871.24 96.0166 2869.29 108.172 2864.9 108.528C2864.42 108.565 2863.96 108.441 2863.54 108.164C2859.83 105.717 2858.28 89.7243 2857.25 79.1424C2856.87 75.2534 2856.51 71.5683 2856.22 70.7526C2853.46 70.7599 2831.92 70.7599 2831.92 70.7599L2831.92 70.0316C2831.92 70.0316 2855.44 70.0243 2856.48 70.0243C2857.22 70.0243 2857.33 70.3156 2858.17 79.0841C2859.13 88.9086 2860.73 105.353 2864.14 107.604C2864.37 107.756 2864.59 107.822 2864.82 107.807C2868.82 107.472 2870.97 91.1808 2872.11 82.4269C2872.58 78.8438 2872.95 76.0181 2873.32 74.8019C2874.73 70.068 2877.47 70.0098 2877.59 70.0098L2882.94 70.0098L2885.5 0.349893C2885.51 0.160541 2885.72 0.000322507 2885.97 0.000322528Z" fill="white" fill-opacity="0.1"/>
<path d="M2805.62 0.000832553C2805.87 0.000832575 2806.07 0.161058 2806.08 0.357693L2809.79 131.513L2814.38 26.4883C2814.38 26.2917 2814.59 26.1388 2814.83 26.1388C2814.83 26.1388 2814.83 26.1388 2814.84 26.1388C2815.08 26.1388 2815.28 26.2917 2815.3 26.4811L2818.77 70.0176L2822.72 70.0176C2822.96 70.0176 2823.15 70.1632 2823.18 70.3453C2823.96 77.0892 2825.99 78.502 2826.41 78.7278C2827.9 78.4292 2829.3 73.7027 2829.83 70.3453C2829.86 70.1632 2830.05 70.0249 2830.29 70.0249L2837.18 70.0249C2837.44 70.0249 2837.64 70.1851 2837.64 70.389C2837.64 70.5929 2837.44 70.7531 2837.18 70.7531L2830.7 70.7531C2830.36 72.7632 2829.02 79.3395 2826.36 79.4634C2826.3 79.4634 2826.24 79.4634 2826.18 79.4488C2825.89 79.3687 2823.26 78.4656 2822.3 70.7459L2818.35 70.7459C2818.11 70.7459 2817.91 70.5929 2817.89 70.4036L2814.98 33.9823L2810.16 144.346C2810.15 144.542 2810 144.695 2809.7 144.695C2809.45 144.695 2809.25 144.535 2809.24 144.338L2805.57 14.5373L2803.52 70.3963C2803.51 70.5929 2803.31 70.7531 2803.06 70.7531L2797.26 70.7531C2797.25 70.7531 2795.1 70.8769 2793.88 74.9844C2793.53 76.1497 2793.16 78.9608 2792.69 82.5148C2790.91 96.0244 2788.96 108.179 2784.57 108.529C2784.09 108.565 2783.63 108.442 2783.2 108.165C2779.5 105.718 2777.94 89.7248 2776.92 79.1429C2776.54 75.2539 2776.18 71.5688 2775.89 70.7531C2773.12 70.7531 2751.59 70.7604 2751.59 70.7604L2751.59 70.0321C2751.59 70.0321 2775.1 70.0249 2776.14 70.0249C2776.88 70.0249 2776.99 70.3162 2777.84 79.0846C2778.8 88.9091 2780.39 105.354 2783.8 107.604C2784.03 107.757 2784.25 107.823 2784.49 107.808C2788.49 107.488 2790.63 91.1959 2791.78 82.442C2792.25 78.8589 2792.61 76.0259 2792.98 74.8169C2794.39 70.0831 2797.14 70.0249 2797.26 70.0249L2802.61 70.0249L2805.17 0.364972C2805.17 0.161054 2805.37 0.000832532 2805.62 0.000832553Z" fill="white" fill-opacity="0.1"/>
<path d="M2719.77 0.000832553C2720.02 0.000832575 2720.22 0.161058 2720.23 0.357693L2723.94 131.513L2728.53 26.4883C2728.54 26.2917 2728.74 26.1388 2728.98 26.1388C2729.26 26.1606 2729.43 26.2844 2729.45 26.4811L2732.92 70.0176L2736.87 70.0176C2737.11 70.0176 2737.3 70.1632 2737.33 70.3453C2738.11 77.0892 2740.14 78.502 2740.56 78.7278C2742.05 78.4292 2743.45 73.7027 2743.98 70.3453C2744.01 70.1632 2744.21 70.0249 2744.44 70.0249L2751.33 70.0249C2751.59 70.0249 2751.79 70.1851 2751.79 70.389C2751.79 70.5929 2751.59 70.7531 2751.33 70.7531L2744.85 70.7531C2744.51 72.7632 2743.17 79.3395 2740.51 79.4634C2740.45 79.4634 2740.39 79.4634 2740.33 79.4488C2740.04 79.3687 2737.42 78.4656 2736.45 70.7459L2732.5 70.7459C2732.26 70.7459 2732.06 70.5929 2732.04 70.4036L2729.14 33.9823L2724.31 144.346C2724.31 144.542 2724.12 144.695 2723.85 144.695C2723.61 144.695 2723.4 144.535 2723.39 144.338L2719.72 14.5373L2717.67 70.3963C2717.66 70.5929 2717.46 70.7531 2717.21 70.7531L2711.41 70.7531C2711.4 70.7531 2709.25 70.8769 2708.03 74.9844C2707.68 76.1497 2707.31 78.9608 2706.84 82.5148C2705.06 96.0244 2703.11 108.179 2698.72 108.529C2698.24 108.565 2697.78 108.442 2697.36 108.165C2693.65 105.718 2692.1 89.7248 2691.07 79.1429C2690.69 75.2539 2690.33 71.5688 2690.04 70.7531C2687.27 70.7531 2665.74 70.7604 2665.74 70.7604L2665.74 70.0321C2665.74 70.0321 2689.25 70.0249 2690.3 70.0249C2691.03 70.0249 2691.14 70.3162 2691.99 79.0846C2692.95 88.9091 2694.54 105.354 2697.95 107.604C2698.18 107.757 2698.4 107.823 2698.63 107.808C2702.63 107.488 2704.78 91.1959 2705.92 82.442C2706.39 78.8589 2706.76 76.0259 2707.13 74.8169C2708.54 70.0831 2711.28 70.0249 2711.4 70.0249L2716.75 70.0249L2719.31 0.364972C2719.32 0.161054 2719.52 0.000832532 2719.77 0.000832553Z" fill="white" fill-opacity="0.1"/>
<path d="M2639.42 0.000322527C2639.67 0.000322548 2639.87 0.160548 2639.88 0.357183L2643.59 131.513L2648.18 26.4878C2648.19 26.2912 2648.39 26.1383 2648.63 26.1383C2648.63 26.1383 2648.63 26.1383 2648.64 26.1383C2648.88 26.1383 2649.08 26.2912 2649.1 26.4805L2652.57 70.0171L2656.52 70.0171C2656.76 70.0171 2656.95 70.1627 2656.98 70.3448C2657.76 77.0886 2659.79 78.5015 2660.21 78.7273C2661.7 78.4287 2663.1 73.7022 2663.63 70.3448C2663.66 70.1627 2663.85 70.0243 2664.09 70.0243L2670.98 70.0243C2671.24 70.0243 2671.44 70.1846 2671.44 70.3885C2671.44 70.5924 2671.24 70.7526 2670.98 70.7526L2664.5 70.7526C2664.16 72.7627 2662.82 79.339 2660.16 79.4628C2660.09 79.4628 2660.04 79.4628 2659.98 79.4483C2659.69 79.3682 2657.06 78.4651 2656.1 70.7453L2652.15 70.7453C2651.91 70.7453 2651.71 70.5924 2651.69 70.403L2648.78 33.9818L2643.96 144.338C2643.95 144.535 2643.74 144.687 2643.49 144.687C2643.25 144.687 2643.04 144.527 2643.03 144.331L2639.37 14.5295L2637.31 70.3885C2637.3 70.5851 2637.1 70.7453 2636.85 70.7453L2631.05 70.7453C2631.04 70.7453 2628.89 70.8691 2627.67 74.9766C2627.32 76.1419 2626.95 78.953 2626.48 82.507C2624.7 96.0166 2622.75 108.172 2618.36 108.521C2617.89 108.558 2617.43 108.434 2617 108.157C2613.29 105.71 2611.73 89.717 2610.71 79.1351C2610.33 75.2461 2609.97 71.5537 2609.68 70.7453C2606.94 70.7526 2585.38 70.7526 2585.38 70.7526L2585.38 70.0243C2585.38 70.0243 2608.89 70.0171 2609.94 70.0171C2610.67 70.0171 2610.78 70.3084 2611.63 79.0841C2612.59 88.9086 2614.18 105.353 2617.59 107.604C2617.83 107.756 2618.05 107.829 2618.28 107.807C2622.28 107.487 2624.42 91.1954 2625.58 82.4415C2626.05 78.8584 2626.42 76.0254 2626.78 74.8164C2628.19 70.0826 2630.94 70.0243 2631.06 70.0243L2636.41 70.0243L2638.97 0.364462C2638.97 0.160544 2639.17 0.000322505 2639.42 0.000322527Z" fill="white" fill-opacity="0.1"/>
<path d="M2558.4 0.000322527C2558.65 0.000322549 2558.86 0.160548 2558.87 0.357183L2562.57 131.513L2567.16 26.4878C2567.17 26.2912 2567.37 26.1383 2567.61 26.1383C2567.61 26.1383 2567.61 26.1383 2567.62 26.1383C2567.86 26.1383 2568.06 26.2912 2568.08 26.4805L2571.56 70.0171L2575.5 70.0171C2575.74 70.0171 2575.93 70.1627 2575.96 70.3448C2576.75 77.0886 2578.77 78.5015 2579.2 78.7273C2580.68 78.4287 2582.08 73.7022 2582.62 70.3448C2582.64 70.1627 2582.84 70.0243 2583.08 70.0243L2589.95 70.0243C2590.21 70.0243 2590.41 70.1846 2590.41 70.3885C2590.41 70.5924 2590.21 70.7526 2589.95 70.7526L2583.47 70.7526C2583.13 72.7627 2581.8 79.339 2579.13 79.4628C2579.07 79.4628 2579.01 79.4628 2578.96 79.4483C2578.66 79.3682 2576.05 78.4651 2575.08 70.7453L2571.12 70.7453C2570.88 70.7453 2570.68 70.5924 2570.66 70.403L2567.76 33.9818L2562.94 144.338C2562.93 144.535 2562.73 144.687 2562.48 144.687C2562.23 144.687 2562.03 144.527 2562.02 144.331L2558.35 14.5295L2556.29 70.3885C2556.28 70.5851 2556.08 70.7453 2555.83 70.7453L2550.04 70.7453C2550.03 70.7453 2547.88 70.8691 2546.65 74.9766C2546.3 76.1419 2545.93 78.953 2545.46 82.507C2543.68 96.0166 2541.73 108.172 2537.34 108.521C2536.87 108.558 2536.41 108.434 2535.98 108.157C2532.27 105.71 2530.72 89.7243 2529.69 79.1351C2529.32 75.2461 2528.96 71.5537 2528.66 70.7453C2525.93 70.7526 2504.37 70.7526 2504.37 70.7526L2504.37 70.0243C2504.37 70.0243 2527.88 70.0171 2528.92 70.0171C2529.66 70.0171 2529.77 70.3156 2530.62 79.0841C2531.57 88.9086 2533.17 105.353 2536.57 107.596C2536.8 107.749 2537.02 107.822 2537.25 107.8C2541.25 107.48 2543.4 91.1881 2544.54 82.4342C2545.01 78.8511 2545.38 76.0181 2545.75 74.8091C2547.16 70.0753 2549.91 70.0171 2550.03 70.0171L2555.37 70.0171L2557.93 0.357183C2557.95 0.160548 2558.16 0.000322506 2558.4 0.000322527Z" fill="white" fill-opacity="0.1"/>
<path d="M2478.05 0.000832553C2478.06 0.000832554 2478.06 0.000832554 2478.05 0.000832553C2478.3 0.000832575 2478.5 0.161058 2478.51 0.357693L2482.22 131.513L2486.81 26.4883C2486.81 26.2917 2487.02 26.1388 2487.26 26.1388C2487.26 26.1388 2487.26 26.1388 2487.27 26.1388C2487.51 26.1388 2487.71 26.2917 2487.73 26.4811L2491.2 70.0176L2495.15 70.0176C2495.39 70.0176 2495.58 70.1632 2495.61 70.3453C2496.39 77.0892 2498.42 78.502 2498.84 78.7278C2500.33 78.4292 2501.73 73.7027 2502.26 70.3453C2502.29 70.1632 2502.48 70.0249 2502.72 70.0249L2509.61 70.0249C2509.87 70.0249 2510.07 70.1851 2510.07 70.389C2510.07 70.5929 2509.87 70.7531 2509.61 70.7531L2503.13 70.7531C2502.79 72.7632 2501.45 79.3395 2498.79 79.4634C2498.72 79.4634 2498.67 79.4634 2498.61 79.4488C2498.32 79.3687 2495.69 78.4656 2494.73 70.7459L2490.78 70.7459C2490.54 70.7459 2490.34 70.5929 2490.32 70.4036L2487.41 33.9823L2482.59 144.346C2482.58 144.542 2482.38 144.695 2482.13 144.695C2481.88 144.695 2481.68 144.535 2481.67 144.338L2478 14.5373L2475.95 70.3963C2475.94 70.5929 2475.74 70.7531 2475.49 70.7531L2469.69 70.7531C2469.68 70.7531 2467.53 70.8769 2466.31 74.9844C2465.96 76.1497 2465.59 78.9608 2465.13 82.5148C2463.35 96.0244 2461.39 108.179 2457.01 108.536C2456.54 108.573 2456.08 108.449 2455.64 108.172C2451.94 105.725 2450.38 89.7321 2449.36 79.1502C2448.98 75.2612 2448.62 71.5761 2448.33 70.7604C2445.57 70.7677 2424.03 70.7677 2424.03 70.7677L2424.03 70.0394C2424.03 70.0394 2447.54 70.0321 2448.58 70.0321C2449.32 70.0321 2449.43 70.3234 2450.28 79.0919C2451.24 88.9164 2452.83 105.361 2456.24 107.611C2456.47 107.764 2456.69 107.837 2456.92 107.815C2460.92 107.495 2463.07 91.1959 2464.22 82.442C2464.69 78.8589 2465.06 76.0332 2465.43 74.8242C2466.84 70.0904 2469.59 70.0321 2469.71 70.0321L2475.05 70.0321L2477.62 0.372251C2477.6 0.16105 2477.8 0.000832532 2478.05 0.000832553Z" fill="white" fill-opacity="0.1"/>
<path d="M2394.27 0.000322528C2394.51 0.00032255 2394.72 0.160548 2394.73 0.357183L2398.43 131.513L2403.02 26.4878C2403.03 26.2912 2403.23 26.1383 2403.47 26.1383C2403.47 26.1383 2403.47 26.1383 2403.48 26.1383C2403.72 26.1383 2403.93 26.2912 2403.94 26.4805L2407.42 70.0171L2411.36 70.0171C2411.6 70.0171 2411.8 70.1627 2411.82 70.3448C2412.61 77.0886 2414.64 78.5015 2415.06 78.7273C2416.54 78.4287 2417.94 73.7022 2418.48 70.3448C2418.51 70.1627 2418.7 70.0243 2418.94 70.0243L2425.81 70.0243C2426.06 70.0243 2426.27 70.1846 2426.27 70.3885C2426.27 70.5924 2426.06 70.7526 2425.81 70.7526L2419.33 70.7526C2418.99 72.7627 2417.65 79.339 2414.99 79.4628C2414.93 79.4628 2414.87 79.4628 2414.81 79.4483C2414.52 79.3682 2411.9 78.4651 2410.93 70.7453L2406.98 70.7453C2406.74 70.7453 2406.53 70.5924 2406.52 70.403L2403.61 33.9818L2398.79 144.338C2398.78 144.535 2398.58 144.687 2398.33 144.687C2398.08 144.687 2397.88 144.527 2397.87 144.331L2394.2 14.5295L2392.15 70.3885C2392.14 70.5851 2391.93 70.7453 2391.69 70.7453L2385.89 70.7453C2385.88 70.7453 2383.73 70.8691 2382.51 74.9766C2382.16 76.1419 2381.79 78.953 2381.32 82.507C2379.54 96.0166 2377.58 108.172 2373.2 108.528C2372.72 108.565 2372.26 108.441 2371.83 108.164C2368.13 105.717 2366.57 89.7243 2365.55 79.1424C2365.17 75.2534 2364.81 71.5683 2364.51 70.7526C2361.76 70.7599 2340.22 70.7599 2340.22 70.7599L2340.22 70.0316C2340.22 70.0316 2363.73 70.0243 2364.77 70.0243C2365.51 70.0243 2365.62 70.3156 2366.47 79.0841C2367.43 88.9086 2369.02 105.353 2372.43 107.604C2372.66 107.756 2372.88 107.822 2373.11 107.807C2377.11 107.472 2379.26 91.1808 2380.4 82.4269C2380.87 78.8438 2381.24 76.0181 2381.61 74.8019C2383.02 70.068 2385.77 70.0098 2385.89 70.0098L2391.23 70.0098L2393.8 0.349893C2393.81 0.160541 2394.02 0.000322507 2394.27 0.000322528Z" fill="white" fill-opacity="0.1"/>
<path d="M2313.91 0.000832553C2314.16 0.000832575 2314.37 0.161058 2314.37 0.357693L2318.08 131.513L2322.67 26.4883C2322.68 26.2917 2322.88 26.1388 2323.12 26.1388C2323.12 26.1388 2323.12 26.1388 2323.13 26.1388C2323.37 26.1388 2323.57 26.2917 2323.59 26.4811L2327.07 70.0176L2331.01 70.0176C2331.25 70.0176 2331.44 70.1632 2331.47 70.3453C2332.26 77.0892 2334.28 78.502 2334.71 78.7278C2336.19 78.4292 2337.59 73.7027 2338.13 70.3453C2338.15 70.1632 2338.35 70.0249 2338.59 70.0249L2345.47 70.0249C2345.73 70.0249 2345.93 70.1851 2345.93 70.389C2345.93 70.5929 2345.73 70.7531 2345.47 70.7531L2338.99 70.7531C2338.65 72.7632 2337.32 79.3395 2334.65 79.4634C2334.6 79.4634 2334.53 79.4634 2334.48 79.4488C2334.18 79.3687 2331.55 78.4656 2330.6 70.7459L2326.64 70.7459C2326.4 70.7459 2326.2 70.5929 2326.18 70.4036L2323.28 33.9823L2318.46 144.346C2318.45 144.542 2318.29 144.695 2318 144.695C2317.75 144.695 2317.55 144.535 2317.54 144.338L2313.87 14.5373L2311.81 70.3963C2311.8 70.5929 2311.6 70.7531 2311.35 70.7531L2305.55 70.7531C2305.54 70.7531 2303.4 70.8769 2302.17 74.9844C2301.82 76.1497 2301.45 78.9608 2300.98 82.5148C2299.2 96.0244 2297.25 108.179 2292.86 108.529C2292.38 108.565 2291.92 108.442 2291.5 108.165C2287.79 105.718 2286.24 89.7248 2285.21 79.1429C2284.83 75.2539 2284.47 71.5688 2284.18 70.7531C2281.41 70.7531 2259.88 70.7604 2259.88 70.7604L2259.88 70.0321C2259.88 70.0321 2283.4 70.0249 2284.44 70.0249C2285.18 70.0249 2285.29 70.3162 2286.13 79.0846C2287.09 88.9091 2288.69 105.354 2292.1 107.604C2292.33 107.757 2292.55 107.823 2292.78 107.808C2296.78 107.488 2298.93 91.1959 2300.07 82.442C2300.54 78.8589 2300.91 76.0259 2301.28 74.8169C2302.69 70.0831 2305.43 70.0249 2305.55 70.0249L2310.9 70.0249L2313.46 0.364972C2313.46 0.161054 2313.66 0.000832532 2313.91 0.000832553Z" fill="white" fill-opacity="0.1"/>
<path d="M2228.07 0.000832553C2228.31 0.000832575 2228.52 0.161058 2228.53 0.357693L2232.23 131.513L2236.82 26.4883C2236.83 26.2917 2237.03 26.1388 2237.27 26.1388C2237.55 26.1606 2237.72 26.2844 2237.74 26.4811L2241.22 70.0176L2245.16 70.0176C2245.4 70.0176 2245.6 70.1632 2245.62 70.3453C2246.41 77.0892 2248.43 78.502 2248.86 78.7278C2250.34 78.4292 2251.74 73.7027 2252.28 70.3453C2252.31 70.1632 2252.5 70.0249 2252.74 70.0249L2259.62 70.0249C2259.88 70.0249 2260.08 70.1851 2260.08 70.389C2260.08 70.5929 2259.88 70.7531 2259.62 70.7531L2253.14 70.7531C2252.8 72.7632 2251.47 79.3395 2248.8 79.4634C2248.75 79.4634 2248.68 79.4634 2248.63 79.4488C2248.33 79.3687 2245.72 78.4656 2244.75 70.7459L2240.79 70.7459C2240.55 70.7459 2240.35 70.5929 2240.33 70.4036L2237.43 33.9823L2232.61 144.346C2232.6 144.542 2232.42 144.695 2232.15 144.695C2231.9 144.695 2231.7 144.535 2231.69 144.338L2228.02 14.5373L2225.96 70.3963C2225.95 70.5929 2225.75 70.7531 2225.5 70.7531L2219.71 70.7531C2219.7 70.7531 2217.55 70.8769 2216.32 74.9844C2215.97 76.1497 2215.6 78.9608 2215.13 82.5148C2213.35 96.0244 2211.4 108.179 2207.01 108.529C2206.53 108.565 2206.07 108.442 2205.65 108.165C2201.94 105.718 2200.4 89.7248 2199.36 79.1429C2198.99 75.2539 2198.63 71.5688 2198.33 70.7531C2195.57 70.7531 2174.04 70.7604 2174.04 70.7604L2174.04 70.0321C2174.04 70.0321 2197.55 70.0249 2198.59 70.0249C2199.33 70.0249 2199.44 70.3162 2200.29 79.0846C2201.24 88.9091 2202.84 105.354 2206.24 107.604C2206.47 107.757 2206.69 107.823 2206.92 107.808C2210.92 107.488 2213.07 91.1959 2214.21 82.442C2214.68 78.8589 2215.05 76.0259 2215.42 74.8169C2216.83 70.0831 2219.58 70.0249 2219.7 70.0249L2225.04 70.0249L2227.6 0.364972C2227.61 0.161054 2227.82 0.000832532 2228.07 0.000832553Z" fill="white" fill-opacity="0.1"/>
<path d="M2147.71 0.000322527C2147.96 0.000322548 2148.16 0.160548 2148.17 0.357183L2151.88 131.513L2156.47 26.4878C2156.48 26.2912 2156.68 26.1383 2156.92 26.1383C2156.92 26.1383 2156.92 26.1383 2156.93 26.1383C2157.17 26.1383 2157.37 26.2912 2157.39 26.4805L2160.86 70.0171L2164.81 70.0171C2165.05 70.0171 2165.24 70.1627 2165.27 70.3448C2166.05 77.0886 2168.08 78.5015 2168.51 78.7273C2169.99 78.4287 2171.39 73.7022 2171.93 70.3448C2171.95 70.1627 2172.15 70.0243 2172.39 70.0243L2179.27 70.0243C2179.53 70.0243 2179.73 70.1846 2179.73 70.3885C2179.73 70.5924 2179.53 70.7526 2179.27 70.7526L2172.79 70.7526C2172.45 72.7627 2171.11 79.339 2168.45 79.4628C2168.39 79.4628 2168.33 79.4628 2168.28 79.4483C2167.98 79.3682 2165.35 78.4651 2164.4 70.7453L2160.44 70.7453C2160.2 70.7453 2160 70.5924 2159.98 70.403L2157.08 33.9818L2152.25 144.338C2152.24 144.535 2152.04 144.687 2151.79 144.687C2151.54 144.687 2151.33 144.527 2151.33 144.331L2147.66 14.5295L2145.6 70.3885C2145.59 70.5851 2145.39 70.7453 2145.14 70.7453L2139.34 70.7453C2139.33 70.7453 2137.19 70.8691 2135.96 74.9766C2135.61 76.1419 2135.24 78.953 2134.77 82.507C2132.99 96.0166 2131.04 108.172 2126.65 108.521C2126.18 108.558 2125.72 108.434 2125.29 108.157C2121.58 105.71 2120.02 89.717 2119 79.1351C2118.62 75.2461 2118.26 71.5537 2117.97 70.7453C2115.23 70.7526 2093.67 70.7526 2093.67 70.7526L2093.67 70.0243C2093.67 70.0243 2117.19 70.0171 2118.23 70.0171C2118.96 70.0171 2119.08 70.3084 2119.92 79.0841C2120.88 88.9086 2122.48 105.353 2125.89 107.604C2126.12 107.756 2126.34 107.829 2126.57 107.807C2130.57 107.487 2132.72 91.1954 2133.87 82.4415C2134.34 78.8584 2134.71 76.0254 2135.08 74.8164C2136.49 70.0826 2139.23 70.0243 2139.35 70.0243L2144.7 70.0243L2147.26 0.364462C2147.26 0.160544 2147.46 0.000322505 2147.71 0.000322527Z" fill="white" fill-opacity="0.1"/>
<path d="M2066.7 0.000322527C2066.95 0.000322549 2067.15 0.160548 2067.16 0.357183L2070.86 131.513L2075.45 26.4878C2075.46 26.2912 2075.67 26.1383 2075.91 26.1383C2075.91 26.1383 2075.91 26.1383 2075.92 26.1383C2076.15 26.1383 2076.36 26.2912 2076.38 26.4805L2079.85 70.0171L2083.8 70.0171C2084.04 70.0171 2084.23 70.1627 2084.26 70.3448C2085.04 77.0886 2087.07 78.5015 2087.49 78.7273C2088.98 78.4287 2090.38 73.7022 2090.91 70.3448C2090.94 70.1627 2091.13 70.0243 2091.37 70.0243L2098.25 70.0243C2098.51 70.0243 2098.71 70.1846 2098.71 70.3885C2098.71 70.5924 2098.51 70.7526 2098.25 70.7526L2091.77 70.7526C2091.43 72.7627 2090.09 79.339 2087.43 79.4628C2087.36 79.4628 2087.31 79.4628 2087.25 79.4483C2086.96 79.3682 2084.34 78.4651 2083.37 70.7453L2079.42 70.7453C2079.18 70.7453 2078.98 70.5924 2078.96 70.403L2076.05 33.9818L2071.23 144.338C2071.22 144.535 2071.02 144.687 2070.77 144.687C2070.52 144.687 2070.32 144.527 2070.31 144.331L2066.64 14.5295L2064.59 70.3885C2064.58 70.5851 2064.38 70.7453 2064.13 70.7453L2058.33 70.7453C2058.32 70.7453 2056.17 70.8691 2054.95 74.9766C2054.6 76.1419 2054.23 78.953 2053.76 82.507C2051.98 96.0166 2050.02 108.172 2045.64 108.521C2045.17 108.558 2044.71 108.434 2044.27 108.157C2040.57 105.71 2039.01 89.7243 2037.99 79.1351C2037.61 75.2461 2037.25 71.5537 2036.96 70.7453C2034.23 70.7526 2012.66 70.7526 2012.66 70.7526L2012.66 70.0243C2012.66 70.0243 2036.17 70.0171 2037.21 70.0171C2037.95 70.0171 2038.06 70.3156 2038.91 79.0841C2039.87 88.9086 2041.46 105.353 2044.86 107.596C2045.09 107.749 2045.32 107.822 2045.55 107.8C2049.55 107.48 2051.69 91.1881 2052.84 82.4342C2053.31 78.8511 2053.67 76.0181 2054.04 74.8091C2055.45 70.0753 2058.2 70.0171 2058.32 70.0171L2063.67 70.0171L2066.23 0.357183C2066.25 0.160548 2066.45 0.000322506 2066.7 0.000322527Z" fill="white" fill-opacity="0.1"/>
<path d="M1986.34 0.000832553C1986.35 0.000832554 1986.35 0.000832554 1986.34 0.000832553C1986.59 0.000832575 1986.79 0.161058 1986.8 0.357693L1990.51 131.513L1995.1 26.4883C1995.11 26.2917 1995.31 26.1388 1995.55 26.1388C1995.55 26.1388 1995.55 26.1388 1995.56 26.1388C1995.8 26.1388 1996 26.2917 1996.02 26.4811L1999.5 70.0176L2003.44 70.0176C2003.68 70.0176 2003.87 70.1632 2003.9 70.3453C2004.68 77.0892 2006.71 78.502 2007.14 78.7278C2008.62 78.4292 2010.02 73.7027 2010.56 70.3453C2010.58 70.1632 2010.78 70.0249 2011.02 70.0249L2017.9 70.0249C2018.16 70.0249 2018.36 70.1851 2018.36 70.389C2018.36 70.5929 2018.16 70.7531 2017.9 70.7531L2011.42 70.7531C2011.08 72.7632 2009.75 79.3395 2007.08 79.4634C2007.02 79.4634 2006.96 79.4634 2006.91 79.4488C2006.61 79.3687 2003.98 78.4656 2003.03 70.7459L1999.07 70.7459C1998.83 70.7459 1998.63 70.5929 1998.61 70.4036L1995.71 33.9823L1990.89 144.346C1990.88 144.542 1990.68 144.695 1990.43 144.695C1990.18 144.695 1989.97 144.535 1989.97 144.338L1986.3 14.5373L1984.24 70.3963C1984.23 70.5929 1984.03 70.7531 1983.78 70.7531L1977.98 70.7531C1977.97 70.7531 1975.83 70.8769 1974.6 74.9844C1974.25 76.1497 1973.88 78.9608 1973.42 82.5148C1971.64 96.0244 1969.69 108.179 1965.3 108.536C1964.83 108.573 1964.37 108.449 1963.94 108.172C1960.23 105.725 1958.67 89.7321 1957.65 79.1502C1957.27 75.2612 1956.91 71.5761 1956.62 70.7604C1953.86 70.7677 1932.32 70.7677 1932.32 70.7677L1932.32 70.0394C1932.32 70.0394 1955.84 70.0321 1956.88 70.0321C1957.61 70.0321 1957.72 70.3234 1958.57 79.0919C1959.53 88.9164 1961.13 105.361 1964.54 107.611C1964.77 107.764 1964.99 107.837 1965.22 107.815C1969.22 107.495 1971.37 91.1959 1972.52 82.442C1972.99 78.8589 1973.36 76.0332 1973.73 74.8242C1975.14 70.0904 1977.88 70.0321 1978 70.0321L1983.35 70.0321L1985.91 0.372251C1985.89 0.16105 1986.09 0.000832532 1986.34 0.000832553Z" fill="white" fill-opacity="0.1"/>
<path d="M1901.94 0.000322528C1902.19 0.00032255 1902.39 0.160548 1902.4 0.357183L1906.11 131.513L1910.7 26.4878C1910.71 26.2912 1910.91 26.1383 1911.15 26.1383C1911.15 26.1383 1911.15 26.1383 1911.16 26.1383C1911.4 26.1383 1911.6 26.2912 1911.62 26.4805L1915.1 70.0171L1919.04 70.0171C1919.28 70.0171 1919.47 70.1627 1919.5 70.3448C1920.28 77.0886 1922.31 78.5015 1922.74 78.7273C1924.22 78.4287 1925.62 73.7022 1926.16 70.3448C1926.18 70.1627 1926.38 70.0243 1926.62 70.0243L1933.48 70.0243C1933.74 70.0243 1933.94 70.1846 1933.94 70.3885C1933.94 70.5924 1933.74 70.7526 1933.48 70.7526L1927 70.7526C1926.66 72.7627 1925.33 79.339 1922.66 79.4628C1922.61 79.4628 1922.54 79.4628 1922.49 79.4483C1922.19 79.3682 1919.57 78.4651 1918.61 70.7453L1914.65 70.7453C1914.41 70.7453 1914.21 70.5924 1914.19 70.403L1911.29 33.9818L1906.47 144.338C1906.46 144.535 1906.26 144.687 1906.01 144.687C1905.76 144.687 1905.56 144.527 1905.55 144.331L1901.88 14.5295L1899.82 70.3885C1899.81 70.5851 1899.61 70.7453 1899.36 70.7453L1893.56 70.7453C1893.56 70.7453 1891.41 70.8691 1890.18 74.9766C1889.83 76.1419 1889.46 78.953 1888.99 82.507C1887.21 96.0166 1885.26 108.172 1880.87 108.528C1880.39 108.565 1879.93 108.441 1879.51 108.164C1875.8 105.717 1874.25 89.7243 1873.22 79.1424C1872.85 75.2534 1872.49 71.5683 1872.19 70.7526C1869.43 70.7599 1847.89 70.7599 1847.89 70.7599L1847.89 70.0316C1847.89 70.0316 1871.41 70.0243 1872.45 70.0243C1873.19 70.0243 1873.3 70.3156 1874.14 79.0841C1875.1 88.9086 1876.7 105.353 1880.11 107.604C1880.34 107.756 1880.56 107.822 1880.79 107.807C1884.79 107.472 1886.94 91.1808 1888.08 82.4269C1888.55 78.8438 1888.92 76.0181 1889.29 74.8019C1890.7 70.068 1893.44 70.0098 1893.56 70.0098L1898.91 70.0098L1901.47 0.349893C1901.48 0.160541 1901.69 0.000322507 1901.94 0.000322528Z" fill="white" fill-opacity="0.1"/>
<path d="M1821.59 0.000832553C1821.84 0.000832575 1822.04 0.161058 1822.05 0.357693L1825.76 131.513L1830.35 26.4883C1830.36 26.2917 1830.56 26.1388 1830.8 26.1388C1830.8 26.1388 1830.8 26.1388 1830.81 26.1388C1831.05 26.1388 1831.25 26.2917 1831.27 26.4811L1834.74 70.0176L1838.69 70.0176C1838.93 70.0176 1839.12 70.1632 1839.15 70.3453C1839.93 77.0892 1841.96 78.502 1842.38 78.7278C1843.87 78.4292 1845.27 73.7027 1845.8 70.3453C1845.83 70.1632 1846.02 70.0249 1846.26 70.0249L1853.15 70.0249C1853.41 70.0249 1853.61 70.1851 1853.61 70.389C1853.61 70.5929 1853.41 70.7531 1853.15 70.7531L1846.67 70.7531C1846.33 72.7632 1844.99 79.3395 1842.33 79.4634C1842.27 79.4634 1842.21 79.4634 1842.15 79.4488C1841.86 79.3687 1839.23 78.4656 1838.27 70.7459L1834.32 70.7459C1834.08 70.7459 1833.88 70.5929 1833.86 70.4036L1830.95 33.9823L1826.13 144.346C1826.13 144.542 1825.97 144.695 1825.67 144.695C1825.42 144.695 1825.22 144.535 1825.21 144.338L1821.54 14.5373L1819.49 70.3963C1819.48 70.5929 1819.28 70.7531 1819.03 70.7531L1813.23 70.7531C1813.22 70.7531 1811.07 70.8769 1809.85 74.9844C1809.5 76.1497 1809.13 78.9608 1808.66 82.5148C1806.88 96.0244 1804.93 108.179 1800.54 108.529C1800.06 108.565 1799.6 108.442 1799.17 108.165C1795.47 105.718 1793.91 89.7248 1792.89 79.1429C1792.51 75.2539 1792.15 71.5688 1791.86 70.7531C1789.09 70.7531 1767.56 70.7604 1767.56 70.7604L1767.56 70.0321C1767.56 70.0321 1791.07 70.0249 1792.11 70.0249C1792.85 70.0249 1792.96 70.3162 1793.81 79.0846C1794.77 88.9091 1796.36 105.354 1799.77 107.604C1800 107.757 1800.23 107.823 1800.46 107.808C1804.46 107.488 1806.6 91.1959 1807.75 82.442C1808.22 78.8589 1808.59 76.0259 1808.95 74.8169C1810.36 70.0831 1813.11 70.0249 1813.23 70.0249L1818.58 70.0249L1821.14 0.364972C1821.14 0.161054 1821.34 0.000832532 1821.59 0.000832553Z" fill="white" fill-opacity="0.1"/>
<path d="M1735.74 0.000832553C1735.99 0.000832575 1736.19 0.161058 1736.2 0.357693L1739.91 131.513L1744.5 26.4883C1744.51 26.2917 1744.71 26.1388 1744.95 26.1388C1745.23 26.1606 1745.4 26.2844 1745.42 26.4811L1748.89 70.0176L1752.84 70.0176C1753.08 70.0176 1753.27 70.1632 1753.3 70.3453C1754.08 77.0892 1756.11 78.502 1756.54 78.7278C1758.02 78.4292 1759.42 73.7027 1759.95 70.3453C1759.98 70.1632 1760.18 70.0249 1760.42 70.0249L1767.3 70.0249C1767.56 70.0249 1767.76 70.1851 1767.76 70.389C1767.76 70.5929 1767.56 70.7531 1767.3 70.7531L1760.82 70.7531C1760.48 72.7632 1759.14 79.3395 1756.48 79.4634C1756.42 79.4634 1756.36 79.4634 1756.3 79.4488C1756.01 79.3687 1753.39 78.4656 1752.42 70.7459L1748.47 70.7459C1748.23 70.7459 1748.03 70.5929 1748.01 70.4036L1745.11 33.9823L1740.29 144.346C1740.28 144.542 1740.09 144.695 1739.82 144.695C1739.58 144.695 1739.37 144.535 1739.36 144.338L1735.7 14.5373L1733.64 70.3963C1733.63 70.5929 1733.43 70.7531 1733.18 70.7531L1727.38 70.7531C1727.37 70.7531 1725.23 70.8769 1724 74.9844C1723.65 76.1497 1723.28 78.9608 1722.81 82.5148C1721.03 96.0244 1719.08 108.179 1714.69 108.529C1714.21 108.565 1713.75 108.442 1713.33 108.165C1709.62 105.718 1708.07 89.7248 1707.04 79.1429C1706.66 75.2539 1706.3 71.5688 1706.01 70.7531C1703.24 70.7531 1681.71 70.7604 1681.71 70.7604L1681.71 70.0321C1681.71 70.0321 1705.22 70.0249 1706.27 70.0249C1707 70.0249 1707.11 70.3162 1707.96 79.0846C1708.92 88.9091 1710.52 105.354 1713.92 107.604C1714.15 107.757 1714.37 107.823 1714.6 107.808C1718.6 107.488 1720.75 91.1959 1721.89 82.442C1722.36 78.8589 1722.73 76.0259 1723.1 74.8169C1724.51 70.0831 1727.25 70.0249 1727.37 70.0249L1732.72 70.0249L1735.28 0.364972C1735.29 0.161054 1735.49 0.000832532 1735.74 0.000832553Z" fill="white" fill-opacity="0.1"/>
<path d="M1655.39 0.000322527C1655.64 0.000322548 1655.84 0.160548 1655.85 0.357183L1659.56 131.513L1664.15 26.4878C1664.16 26.2912 1664.36 26.1383 1664.6 26.1383C1664.6 26.1383 1664.6 26.1383 1664.61 26.1383C1664.85 26.1383 1665.05 26.2912 1665.07 26.4805L1668.54 70.0171L1672.49 70.0171C1672.73 70.0171 1672.92 70.1627 1672.95 70.3448C1673.73 77.0886 1675.76 78.5015 1676.18 78.7273C1677.67 78.4287 1679.07 73.7022 1679.6 70.3448C1679.63 70.1627 1679.83 70.0243 1680.06 70.0243L1686.95 70.0243C1687.21 70.0243 1687.41 70.1846 1687.41 70.3885C1687.41 70.5924 1687.21 70.7526 1686.95 70.7526L1680.47 70.7526C1680.13 72.7627 1678.79 79.339 1676.13 79.4628C1676.06 79.4628 1676.01 79.4628 1675.95 79.4483C1675.66 79.3682 1673.03 78.4651 1672.07 70.7453L1668.12 70.7453C1667.88 70.7453 1667.68 70.5924 1667.66 70.403L1664.76 33.9818L1659.93 144.338C1659.92 144.535 1659.71 144.687 1659.47 144.687C1659.22 144.687 1659.01 144.527 1659 144.331L1655.34 14.5295L1653.28 70.3885C1653.27 70.5851 1653.07 70.7453 1652.82 70.7453L1647.02 70.7453C1647.01 70.7453 1644.87 70.8691 1643.64 74.9766C1643.29 76.1419 1642.92 78.953 1642.45 82.507C1640.67 96.0166 1638.72 108.172 1634.33 108.521C1633.86 108.558 1633.4 108.434 1632.97 108.157C1629.26 105.71 1627.7 89.717 1626.68 79.1351C1626.3 75.2461 1625.94 71.5537 1625.65 70.7453C1622.91 70.7526 1601.35 70.7526 1601.35 70.7526L1601.35 70.0243C1601.35 70.0243 1624.86 70.0171 1625.91 70.0171C1626.64 70.0171 1626.75 70.3084 1627.6 79.0841C1628.56 88.9086 1630.16 105.353 1633.57 107.604C1633.8 107.756 1634.02 107.829 1634.25 107.807C1638.25 107.487 1640.4 91.1954 1641.55 82.4415C1642.02 78.8584 1642.39 76.0254 1642.75 74.8164C1644.17 70.0826 1646.91 70.0243 1647.03 70.0243L1652.38 70.0243L1654.94 0.364462C1654.94 0.160544 1655.14 0.000322505 1655.39 0.000322527Z" fill="white" fill-opacity="0.1"/>
<path d="M1574.38 0.000322527C1574.62 0.000322549 1574.83 0.160548 1574.84 0.357183L1578.54 131.513L1583.13 26.4878C1583.14 26.2912 1583.34 26.1383 1583.58 26.1383C1583.58 26.1383 1583.58 26.1383 1583.59 26.1383C1583.83 26.1383 1584.03 26.2912 1584.05 26.4805L1587.53 70.0171L1591.47 70.0171C1591.71 70.0171 1591.91 70.1627 1591.93 70.3448C1592.72 77.0886 1594.74 78.5015 1595.17 78.7273C1596.65 78.4287 1598.05 73.7022 1598.59 70.3448C1598.62 70.1627 1598.81 70.0243 1599.05 70.0243L1605.92 70.0243C1606.18 70.0243 1606.39 70.1846 1606.39 70.3885C1606.39 70.5924 1606.18 70.7526 1605.92 70.7526L1599.44 70.7526C1599.1 72.7627 1597.77 79.339 1595.1 79.4628C1595.04 79.4628 1594.98 79.4628 1594.93 79.4483C1594.63 79.3682 1592.02 78.4651 1591.05 70.7453L1587.09 70.7453C1586.85 70.7453 1586.65 70.5924 1586.63 70.403L1583.73 33.9818L1578.91 144.338C1578.9 144.535 1578.7 144.687 1578.45 144.687C1578.2 144.687 1578 144.527 1577.99 144.331L1574.32 14.5295L1572.26 70.3885C1572.26 70.5851 1572.05 70.7453 1571.8 70.7453L1566.01 70.7453C1566 70.7453 1563.85 70.8691 1562.62 74.9766C1562.27 76.1419 1561.9 78.953 1561.43 82.507C1559.66 96.0166 1557.7 108.172 1553.31 108.521C1552.84 108.558 1552.38 108.434 1551.95 108.157C1548.25 105.71 1546.69 89.7243 1545.66 79.1351C1545.29 75.2461 1544.93 71.5537 1544.63 70.7453C1541.9 70.7526 1520.34 70.7526 1520.34 70.7526L1520.34 70.0243C1520.34 70.0243 1543.85 70.0171 1544.89 70.0171C1545.63 70.0171 1545.74 70.3156 1546.59 79.0841C1547.54 88.9086 1549.14 105.353 1552.54 107.596C1552.77 107.749 1552.99 107.822 1553.22 107.8C1557.22 107.48 1559.37 91.1881 1560.51 82.4342C1560.98 78.8511 1561.35 76.0181 1561.72 74.8091C1563.13 70.0753 1565.88 70.0171 1566 70.0171L1571.34 70.0171L1573.9 0.357183C1573.92 0.160548 1574.13 0.000322506 1574.38 0.000322527Z" fill="white" fill-opacity="0.1"/>
<path d="M1494.02 0.000832553C1494.03 0.000832554 1494.03 0.000832554 1494.02 0.000832553C1494.27 0.000832575 1494.47 0.161058 1494.48 0.357693L1498.19 131.513L1502.78 26.4883C1502.79 26.2917 1502.99 26.1388 1503.23 26.1388C1503.23 26.1388 1503.23 26.1388 1503.24 26.1388C1503.48 26.1388 1503.68 26.2917 1503.7 26.4811L1507.17 70.0176L1511.12 70.0176C1511.36 70.0176 1511.55 70.1632 1511.58 70.3453C1512.36 77.0892 1514.39 78.502 1514.81 78.7278C1516.3 78.4292 1517.7 73.7027 1518.23 70.3453C1518.26 70.1632 1518.45 70.0249 1518.69 70.0249L1525.58 70.0249C1525.84 70.0249 1526.04 70.1851 1526.04 70.389C1526.04 70.5929 1525.84 70.7531 1525.58 70.7531L1519.1 70.7531C1518.76 72.7632 1517.42 79.3395 1514.76 79.4634C1514.69 79.4634 1514.64 79.4634 1514.58 79.4488C1514.29 79.3687 1511.66 78.4656 1510.7 70.7459L1506.75 70.7459C1506.51 70.7459 1506.31 70.5929 1506.29 70.4036L1503.38 33.9823L1498.56 144.346C1498.55 144.542 1498.35 144.695 1498.1 144.695C1497.85 144.695 1497.65 144.535 1497.64 144.338L1493.97 14.5373L1491.92 70.3963C1491.91 70.5929 1491.71 70.7531 1491.46 70.7531L1485.66 70.7531C1485.65 70.7531 1483.5 70.8769 1482.28 74.9844C1481.93 76.1497 1481.56 78.9608 1481.1 82.5148C1479.32 96.0244 1477.37 108.179 1472.98 108.536C1472.51 108.573 1472.05 108.449 1471.61 108.172C1467.91 105.725 1466.35 89.7321 1465.33 79.1502C1464.95 75.2612 1464.59 71.5761 1464.3 70.7604C1461.54 70.7677 1440 70.7677 1440 70.7677L1440 70.0394C1440 70.0394 1463.51 70.0321 1464.55 70.0321C1465.29 70.0321 1465.4 70.3234 1466.25 79.0919C1467.21 88.9164 1468.8 105.361 1472.21 107.611C1472.44 107.764 1472.66 107.837 1472.89 107.815C1476.9 107.495 1479.04 91.1959 1480.19 82.442C1480.66 78.8589 1481.03 76.0332 1481.4 74.8242C1482.81 70.0904 1485.56 70.0321 1485.68 70.0321L1491.02 70.0321L1493.59 0.372251C1493.57 0.16105 1493.77 0.000832532 1494.02 0.000832553Z" fill="white" fill-opacity="0.1"/>
</g>
<defs>
<clipPath id="clip0_4003_8518">
<rect width="1440" height="145" fill="white"/>
</clipPath>
<clipPath id="clip1_4003_8518">
<rect width="1440" height="145" fill="white" transform="translate(1440)"/>
</clipPath>
</defs>
</svg>
