<svg width="38" height="38" viewBox="0 0 38 38" fill="none" xmlns="http://www.w3.org/2000/svg">
<rect width="38" height="38" rx="19" fill="white"/>
<path fill-rule="evenodd" clip-rule="evenodd" d="M27.9999 14.6601V15.0001C28.0007 16.0662 27.576 17.0885 26.8199 17.84L23.9999 20.67C23.4738 21.1911 22.6261 21.1911 22.1 20.67L22 20.56C21.8094 20.3656 21.8094 20.0544 22 19.86L25.4399 16.4201C25.807 16.0394 26.0083 15.5288 25.9999 15.0001V14.6601C26.0003 14.127 25.788 13.6159 25.4099 13.2401L24.7599 12.5901C24.3841 12.2121 23.873 11.9997 23.3399 12.0001H22.9999C22.4669 11.9997 21.9558 12.2121 21.58 12.5901L18.14 16.0001C17.9456 16.1906 17.6344 16.1906 17.44 16.0001L17.33 15.8901C16.8089 15.3639 16.8089 14.5162 17.33 13.9901L20.16 11.1501C20.9165 10.405 21.9382 9.99133 22.9999 10.0001H23.3399C24.4011 9.9993 25.4191 10.4202 26.1699 11.1701L26.8299 11.8301C27.5798 12.5809 28.0007 13.5989 27.9999 14.6601ZM15.6499 20.94L20.9399 15.6501C21.0338 15.5554 21.1616 15.5022 21.2949 15.5022C21.4282 15.5022 21.556 15.5554 21.6499 15.6501L22.3499 16.3501C22.4445 16.4439 22.4978 16.5717 22.4978 16.7051C22.4978 16.8384 22.4445 16.9662 22.3499 17.0601L17.0599 22.35C16.966 22.4447 16.8382 22.4979 16.7049 22.4979C16.5716 22.4979 16.4438 22.4447 16.3499 22.35L15.6499 21.65C15.5553 21.5561 15.502 21.4283 15.502 21.295C15.502 21.1617 15.5553 21.0339 15.6499 20.94ZM20.5599 22C20.3655 21.8094 20.0543 21.8094 19.8599 22L16.4299 25.41C16.0517 25.7905 15.5365 26.003 15 25.9999H14.66C14.1269 26.0004 13.6158 25.788 13.24 25.41L12.59 24.76C12.2119 24.3842 11.9996 23.873 12 23.34V23C11.9996 22.4669 12.2119 21.9558 12.59 21.58L16.0099 18.14C16.2005 17.9456 16.2005 17.6345 16.0099 17.44L15.8999 17.33C15.3738 16.8089 14.5261 16.8089 14 17.33L11.18 20.16C10.4239 20.9116 9.99916 21.9339 10 23V23.35C10.0018 24.4077 10.4225 25.4216 11.17 26.1699L11.83 26.8299C12.5808 27.5799 13.5988 28.0008 14.66 27.9999H15C16.0534 28.0061 17.0667 27.5964 17.8199 26.8599L20.6699 24.01C21.191 23.4838 21.191 22.6361 20.6699 22.11L20.5599 22Z" fill="#313D45"/>
</svg>
